<svg xmlns="http://www.w3.org/2000/svg" viewBox="0 0 1222 1000"><g><g><path fill="#E8EAF2" d="M376.48 598.13c-2.36 2.8-8.33 5.72-11.93 5.97h-.2c-1.35-.7-2.3-2.15-2.2-3.9.53-10.64 2.54-30.24 9.7-50.13-.95 5.7-2.4 11.34-2.42 17.14-.02 3.5 1.76 5.4 2.25 8.56.5 3.23-1.06 6.42-.68 9.52.36 2.93 2.53 4.16 4.32 6.22 2.07 2.38 3.24 4.15 1.16 6.63zM385.65 639.24c-2.14 1.02-4.25 1.92-6.36 2.66-5.15 1.8-10.5-2.14-10.5-7.6v-20.14c1.33 1.44 2.6 3 3.4 5.2 1 2.65 1.04 5.46 1.94 8.1 1.97 5.92 7.96 7.46 11.5 11.78zM544.78 606.9v30.57c0 5.13-4.77 9.03-9.74 7.8-9.2-2.27-17.42-7.75-26.6-13.4.78-.35 1.57-.78 2.35-1.3 4.4-2.95 6.73-3.47 12-3.2 10.35.53 12.45-3.64 16.54-12.46 1.45-3.1 1.84-6.83 5.44-8zM548.08 600.2c.17 3.32-3.37 5.5-6.25 3.86-11.1-6.33-37.6-17.43-86.72-17.43-18.05 0-33.06 1.5-45.36 3.7 1.2-2.4 4.4-5.14 6.97-7.4 5.45-4.77 12.6-7.28 19.98-7.5 6.4-.17 12.7 0 19.04-.1 4.73-.08 9.46-.3 14.27-.96 4.9-.67 9.73-.84 13.86-3.76 4.46-3.12 6.9-7.85 10.34-11.83 6.38-7.34 16.67-7.45 20.02-17.1 1.37-3.94 3.1-17.8 8.27-21.97 20.6 27.1 24.76 64.26 25.58 80.5z"/><g opacity=".5"><path fill="#E0E3ED" d="M464.7 617.08l-1 86.1 1 60.3h-17.8l-1.02-78.9 1-67.5"/><g><path fill="#E0E3ED" d="M466.3 615.48l-.27 19.92c-.06 3.05-.3 6.1-.23 9.15l.2 9.15.1 4.58v4.58c.02 3.05-.07 6.1-.1 9.15l-.4 18.3-.16 9.15c-.02 1.5-.08 3.1-.06 4.53l.05 4.58.05 18.3c0 3.05.02 6.1-.02 9.15 0 3.06-.06 6.1 0 9.16l.16 9.15.07 9.16v1.03l-1-.02-8.9-.13c-1.5 0-2.98.02-4.46.03l-4.45.04h-.93l-.03-.93c-.1-3.06-.05-6.1-.08-9.16l-.07-9.15c-.05-3.06-.03-6.1-.13-9.16l-.44-9.15-.8-36.6-.12-4.58c-.04-1.6 0-3.07 0-4.6.04-3.06.18-6.1.26-9.16l.27-9.15.08-9.14.1-9.15c0-3.04.1-6.1.22-9.14.1-3.05.26-6.1.3-9.15.02-3.04.08-6.1.07-9.14v-1.25h1.3l19.4-.32zm-3.2 3.18l-16.2.1 1.66-1.65-.1 9.15c-.02 3.05.08 6.1.1 9.16l.02 4.58c0 1.53-.06 3.05-.08 4.58l-.24 9.15-.27 9.16-.2 9.14c-.08 3.05-.1 6.1-.22 9.15-.05 1.5-.15 3.1-.15 4.53l-.02 4.58v4.58l.12 4.57.24 9.16.46 18.3c.07 3.05-.24 6.1-.27 9.15-.03 1.54.04 3.06.08 4.6.05 1.5.07 3.04.16 4.56l.43 9.15c.1 3.05.26 6.1.25 9.15l-2-1.97c1.5.02 2.97.1 4.46.14l2.22.06c.75.02 1.5.06 2.23.05 2.96 0 5.92-.03 8.9-.07l-1.83 1.85-.15-9.14-.02-9.15c0-3.04-.24-6.1-.4-9.14-.13-3.05-.12-6.1-.06-9.15l.2-9.15c0-3.05-.14-6.1-.1-9.15l.08-4.57c.02-1.6.13-3.07.2-4.6.07-1.54.13-3.06.16-4.6.06-1.5.1-3.04.1-4.56l.03-9.15-.06-9.16c0-3.05-.06-6.1-.05-9.15v-4.56l.13-4.58.25-9.15c.04-3.04-.07-6.1-.1-9.14l.03-16.7z"/></g></g><path fill="#E0E3ED" d="M547.15 601.36l-.03 19.5-.02 8.2c-.03 2.72-.14 5.44-.2 8.17l-.02.37v.26l-.04.5c0 .15-.05.42-.1.65l-.1.7c-.22.86-.5 1.67-.87 2.45-.76 1.55-1.9 2.9-3.34 3.9-1.4 1.04-3.14 1.68-4.93 1.86-.45.06-.9.06-1.35.04-.46 0-.9-.07-1.35-.14l-.33-.05-.3-.07-.5-.1-1-.23c-5.76-1.44-10.8-4.02-15.64-6.78-2.4-1.4-4.73-2.86-7.05-4.3l-3.42-2.16c-1.12-.68-2.22-1.3-3.4-1.9-2.3-1.22-4.75-2.3-7.22-3.43l-7.45-3.3c-2.54-1.1-5-2.2-7.45-3.13-1.22-.47-2.46-.9-3.68-1.26-1.33-.4-2.56-.73-3.82-1.04-5.1-1.22-10.37-1.87-15.66-2.06-5.3-.17-10.62.22-15.9 1.06-2.62.42-5.23.97-7.83 1.6-2.6.6-5.2 1.3-7.75 2.13-5.13 1.6-10.1 3.78-14.93 6.17-4.87 2.37-9.7 4.85-14.58 7.32-4.9 2.4-9.73 4.9-14.9 7.07-.63.26-1.28.52-1.93.76l-.26.08-.06.03-.15.05-.12.04-.48.13c-.28.1-.76.17-1.18.24-1.64.22-3.26 0-4.74-.63-1.48-.63-2.8-1.63-3.78-2.9-.97-1.27-1.6-2.8-1.83-4.4-.08-.4-.07-.8-.1-1.2-.02-.4 0-.7 0-1.04l.02-2.04.03-4.1.05-8.17c0-5.46.15-10.9-.17-16.36l-.04-.77.78-.5c3.25-2.08 6.7-3.83 10.24-5.3 3.53-1.5 7.14-2.8 10.78-3.98 7.3-2.35 14.76-4.1 22.26-5.43 3.77-.66 7.53-1.24 11.3-1.76 3.8-.5 7.6-.87 11.4-1.17 3.8-.33 7.6-.37 11.4-.45 3.82-.04 7.6-.04 11.43.08 1.88.08 3.77.05 5.66.08 1.88-.02 3.8.1 5.7.16 3.83.1 7.62.37 11.42.63 1.9.13 3.8.35 5.7.52l2.84.28 2.83.43c3.78.52 7.5 1.37 11.25 2.1 1.86.42 3.73.8 5.6 1.17l5.58 1.3c1.84.5 3.7.94 5.54 1.46 1.84.54 3.7 1 5.5 1.64 3.67 1.14 7.26 2.5 10.82 4l2.64 1.2 2.62 1.26 2.5 1.32c.34.15.8.2 1.16.1l2.9-.86zm-4.7 5.44c-.53-.12-1.05-.28-1.53-.53l-2.5-1.34-2.46-1.23-2.5-1.14c-3.4-1.46-6.84-2.82-10.37-3.96-3.52-1.18-7.1-2.2-10.7-3.1l-5.45-1.24c-1.82-.4-3.66-.7-5.5-1-3.68-.55-7.38-1-11.1-1.4-3.68-.44-7.4-.88-11.1-1.26-3.72-.3-7.45-.65-11.16-.84-3.7-.26-7.5-.37-11.27-.46-3.7-.07-7.48-.03-11.2.05-3.76.07-7.5.3-11.23.44-3.74.15-7.48.4-11.2.73-1.87.16-3.73.42-5.58.65-1.86.27-3.7.6-5.53.92-1.88.33-3.67.7-5.5 1.07-1.83.4-3.65.83-5.46 1.3-3.6.93-7.2 1.95-10.7 3.12-3.52 1.2-7.02 2.4-10.4 3.84-1.7.7-3.4 1.48-5.06 2.22-1.68.74-3.4 1.4-5.05 2.2l1.18-2.02c-.22 2.72-.3 5.45-.2 8.18.08 2.72.07 5.45.2 8.17l.67 15.92c.15.85.53 1.64 1.08 2.3.53.67 1.2 1.24 2 1.6.73.37 1.66.53 2.4.5.17-.03.24.04.65-.08l.5-.12.12-.03c.06-.03-.28.08-.1.03l.05-.02.23-.06c.62-.2 1.23-.4 1.84-.63 1.22-.45 2.45-.94 3.62-1.52l3.62-1.8c2.4-1.2 4.8-2.5 7.2-3.77 2.38-1.28 4.82-2.52 7.25-3.78 2.44-1.24 4.88-2.52 7.4-3.64 5.04-2.3 10.14-4.4 15.33-6.5 2.6-1.05 5.24-1.98 7.95-2.7 1.36-.38 2.74-.64 4.12-.93 1.37-.3 2.75-.52 4.15-.7 5.57-.76 11.2-.88 16.8-.82 5.6-.1 11.2.82 16.58 2.33 1.36.4 2.73.8 4 1.24 1.36.44 2.65.97 3.95 1.47 2.6 1.03 5.07 2.2 7.58 3.24 5 2.2 10.1 4.1 15.13 6.5 1.25.6 2.52 1.26 3.73 1.96l3.55 2.08c2.35 1.38 4.68 2.76 7.04 4.06 4.67 2.63 9.5 4.96 14.36 6.54l.98.3.5.14.2.06.17.04c.25.05.5.13.75.13.25.04.5.06.76.04 1-.03 2.04-.3 2.93-.88.88-.57 1.62-1.37 2.13-2.3.13-.24.22-.5.33-.73.08-.25.15-.52.2-.76l.06-.33c0-.12.05-.2.05-.4l.02-.5v-.26.04-.19c-.1-2.73-.23-5.45-.3-8.18l-.07-8.18-.16-14.07z"/><path fill="#E0E3ED" d="M449.85 619.48l-.03-.06c0-.03-.03-.05-.05-.12-.02-.06-.05-.26-.06-.23v.33c0 .1-.02 0-.05-.15-.02-.14-.04-.34-.06-.36-.02 0-.03.05-.04.14l-.03.74c0 .1-.02.2-.03.22-.02.03-.05-.2-.08-.37-.03-.18-.05-.23-.05-.03s0 .47-.03.4c-.03-.02-.1-.58-.15-.72-.04-.08-.06-.15-.08-.1 0 0-.02.02-.02.1v.34c0 .1-.02.15-.04.02l-.06-.52c0-.06-.02-.1-.02-.05V619.48h-.02c-.04-.02-.1-.27-.15-.34 0-.04-.03 0-.05 0 0 .02-.02.07-.04 0l-.05-.43-.05-.36c-.02-.07-.02.12-.02.3 0 .4-.03.16-.07-.08l-.04-.37-.05-.17-.03.3c-.04.13-.1.04-.14-.04-.02 0-.05-.2-.08-.26-.03-.05-.04.13-.04.37 0 .27 0 .4-.02.54l-.04.4c-.03.17-.06.37-.14-.22-.07-.44-.07.14-.1.46 0 .18 0 .35-.03.3l-.05-.3c-.02-.1-.02-.05-.03 0l-.04.34s-.02 0-.04-.12l-.05-.42c-.1-.74-.05.4-.12-.28-.04-.27-.05-.28-.05.1 0 .36 0 .3-.03.15l-.07-.4c-.02-.1-.04-.17-.05-.12 0 .04 0 .22-.02.3 0 .1-.02.1-.04 0l-.06-.3c-.02-.05-.02 0-.03.1 0 .56 0 .65-.03.7-.02.06-.03.02-.03.02l-.3-4.8s0-.04.02-.03c.02 0 .05.03.12.48 0 .06.02.1.03 0v-.46c0-.16.02-.2.04-.1.02.08.04.28.06.3.02.04.02-.07.03-.2v-.52c0-.2.02-.24.07.26l.05.42v-.24c0-.83.14.92.13.17v-.4c0-.1 0-.08.02-.05.02.07.06.34.1.48 0 .06 0 .1.02.04v-.27c.02-.08.05.06.08.2.03.15.06.32.1.4 0 .05.03.06.03-.3 0-.85.04-.74.08-.7.04.06.07.17.1.3l.04.2.06.42.06.42c.02.08.03.1.04.03v-.35c0-.13.02-.2.02-.25.03-.26.05-.64.1-.34l.07.4c0 .12.03.25.04.23 0 0 .02-.1.02-.25v-.6-.44c0-.1.02.08.06.46l.04.48.03.15v-.55l-.02-.62c0-.1.02 0 .04.06.02.07.06.3.08.34.05.13.1.02.14.16l.02.06.03.2.03.37c0 .07 0 .05 0 0l.02-.4c0-.1 0-.02.03.1.08.63.13.68.17.72.04.03.06-.13.1-.13l.06.14c.03.04.04-.04.04-.25 0-.2 0-.42.02-.45.02-.02.04.03.05.1.06.15.1.35.13.47.02.05.03.07.04.05 0-.04 0-.24.02-.4V615l.05.25c.02 0 .03-.22.04-.3v-.17l.04-.1.3 4.8zM550.48 600.2v.6c-.03.33-.07.64-.13.9-.1.52-.28 1.05-.52 1.54-.47 1-1.2 1.83-2.07 2.46-.85.62-1.94 1.04-2.93 1.17-1.1.16-2.22 0-3.2-.38-.26-.1-.5-.22-.73-.34l-.5-.27-.9-.52-1.78-1-1.75-.95-1.8-.9c-2.43-1.22-4.93-2.3-7.54-3.1-1.3-.4-2.65-.66-3.93-1.12-1.3-.4-2.57-.87-3.86-1.3-1.27-.5-2.56-.97-3.85-1.4-1.3-.44-2.6-.9-3.95-1.17-1.33-.3-2.67-.57-4-.85l-4.06-.7c-2.7-.47-5.45-.7-8.16-1.04l-8.17-.74c-2.73-.2-5.45-.42-8.17-.68-2.73-.2-5.44-.73-8.17-.94-2.74-.2-5.48-.4-8.22-.24-2.74.14-5.5.26-8.22.28-5.5 0-10.96-.13-16.46-.04-2.74.06-5.48.17-8.22.4-1.36.1-2.73.2-4.1.34l-4.08.5c-2.7.34-5.4.85-8.07 1.5l-2 .48-2 .4c-1.35.32-2.72.52-4.06.68-2.7.3-5.5.5-8.07 1.44-1.3.47-2.54 1.07-3.86 1.4-1.3.4-2.62.75-3.9 1.17-2.6.78-5.18 1.67-7.72 2.63-2.53.96-5.04 2-7.5 3.13-1.2.58-2.42 1.17-3.6 1.8l-.95.5-.24.13-.4.17c-.25.1-.5.17-.74.24-1 .28-2.07.3-3.06.04-2-.48-3.68-1.97-4.37-3.94-.18-.48-.3-1-.34-1.5 0-.25-.03-.5-.02-.75l.03-.57.12-2.08c.08-1.4.17-2.8.3-4.2.15-1.38.27-2.77.48-4.15.43-2.77 1.1-5.5 1.72-8.22 1.4-5.4 1.16-11.13 2.98-16.45.73-2.7 1.7-5.33 2.67-7.95l.75-1.95c.23-.66.46-1.32.7-1.96.5-1.3 1-2.6 1.47-3.9 1.98-5.2 3.87-10.48 6.5-15.43l-.15.56v-.32l.14-.26c2.6-4.75 5.5-9.33 8.74-13.67 3.28-4.32 7.07-8.22 11.12-11.8l3.1-2.64c.98-.94 2.08-1.73 3.15-2.57l1.58-1.3.8-.63.83-.58 3.37-2.34c1.13-.77 2.34-1.4 3.52-2.1 1.2-.67 2.37-1.36 3.63-1.9l3.74-1.73c1.25-.54 2.56-.97 3.84-1.47 2.54-1.06 5.23-1.63 7.88-2.38l1-.26 1-.2 2.02-.4c1.35-.23 2.7-.52 4.04-.74 1.36-.17 2.73-.24 4.1-.37 1.36-.1 2.73-.2 4.1-.14l4.1.08c.67.02 1.35.03 2.03 0l2.06.08c1.34.08 2.68.07 4.02.08l4.12.24c.68.04 1.38.03 2.06.1l2.04.2c1.36.14 2.74.2 4.1.42l4.08.62c1.35.28 2.68.62 4.03.93 1.36.3 2.67.72 3.98 1.18 1.32.4 2.6.98 3.83 1.6 4.98 2.37 10.12 4.44 14.8 7.46 1.17.74 2.27 1.6 3.4 2.4.55.42 1.1.85 1.6 1.32.52.46 1.03.92 1.52 1.4 1.02.95 1.95 2 2.88 3 .45.52.96 1 1.42 1.5.46.5.9 1.03 1.38 1.53l1.43 1.46c.44.5.92 1 1.4 1.5.92 1 1.9 1.98 2.75 3.05l1.3 1.6.32.4.07.1.08.12.04.05.13.2.54.85c.75 1.1 1.4 2.3 2.1 3.43.72 1.1 1.37 2.37 2.13 3.5.4.57.76 1.15 1.17 1.7.42.55.85 1.1 1.2 1.68 1.57 2.25 2.88 4.66 3.86 7.2.5 1.27 1.04 2.53 1.52 3.8.45 1.28.88 2.57 1.37 3.84l.7 1.9c.2.66.4 1.3.63 1.94.45 1.28.88 2.57 1.35 3.84.82 2.57 1.92 5.07 2.65 7.68.83 2.58 1.37 5.24 1.82 7.9.44 2.68.88 5.35 1.47 7.98.24 1.33.6 2.64.88 3.96.28 1.33.6 2.65.85 3.98.97 5.33 1.52 10.73 1.82 16.14v.1zm-4.8.13c-.3-5.28-.83-10.54-1.35-15.8-.15-1.32-.24-2.64-.37-3.96-.14-1.32-.3-2.64-.53-3.94-.1-.65-.2-1.3-.33-1.96l-.46-1.93c-.3-1.3-.68-2.57-1.1-3.83-.4-1.25-.82-2.5-1.15-3.78-.17-.64-.4-1.26-.57-1.9l-.5-1.9c-.58-2.58-1.2-5.14-1.96-7.68-.4-1.25-.9-2.47-1.37-3.7-.44-1.25-1-2.45-1.55-3.64-.55-1.2-1.13-2.37-1.7-3.55-.6-1.17-1.3-2.3-1.9-3.44-.67-1.13-1.18-2.33-1.85-3.45-.6-1.14-1.1-2.36-1.54-3.6-.94-2.47-2.1-4.76-3.8-6.8-.84-1.04-1.75-2.04-2.56-3.1l-2.3-3.1c-.73-1.07-1.5-2.12-2.3-3.16-.4-.52-.76-1.07-1.2-1.55l-1.32-1.43c-.45-.48-.93-.92-1.4-1.38-.5-.43-.98-.85-1.5-1.24-1.03-.8-2.05-1.6-3.13-2.33-1.1-.7-2.07-1.55-3.15-2.26-1.05-.74-2.04-1.58-3.12-2.28-4.15-3.05-8.58-5.95-13.57-7.5-.6-.2-1.2-.42-1.84-.6-.63-.16-1.25-.35-1.87-.54-1.25-.36-2.46-.86-3.7-1.18-1.26-.36-2.5-.74-3.76-1.07l-3.8-.93c-1.27-.35-2.57-.5-3.85-.76-1.3-.23-2.6-.47-3.9-.6l-3.88-.34c-1.33-.05-2.67-.1-4-.1-.65 0-1.4 0-1.96.04-.66.05-1.32.12-1.97.2l-3.93.46c-1.3.1-2.6.43-3.88.6-1.3.2-2.6.37-3.88.5-1.28.2-2.55.46-3.83.7-1.28.24-2.57.4-3.82.74-2.5.62-5.05 1.15-7.5 1.97-5.02 1.34-9.68 3.62-14.4 5.82-4.7 2.24-9.27 4.96-13.07 8.62-1.8 1.92-3.58 3.83-5.2 5.9l-1.26 1.5c-.43.5-.82 1-1.2 1.54l-2.35 3.15c-2.97 4.32-5.64 8.8-8.14 13.4l.3-1.18v.62l-.3.56c-2.48 4.8-5.4 9.46-7.28 14.6-1.96 5.12-2.62 10.63-3.62 15.96-.27 1.33-.53 2.66-.9 3.97-.33 1.32-.9 2.58-1.37 3.88-1.12 2.56-1.64 5.26-1.8 8-.14 2.75 0 5.52-.12 8.24-.1 2.7-.5 5.42-.77 8.1l-.17 2.06-.04.43c-.02.05-.02.1-.03.16 0 .1 0 .2.04.3.08.4.46.8.9.96.23.07.45.1.68.05l.17-.06.23-.1.88-.48c1.25-.7 2.53-1.33 3.8-1.95 5.14-2.47 10.45-4.45 15.83-6.1 1.34-.4 2.7-.78 4.04-1.17 1.36-.36 2.8-.48 4.18-.66 2.8-.35 5.4-1.4 8.14-2.14 1.37-.4 2.7-.68 4.08-.88l1.03-.16c.38-.07.7-.12 1.06-.15l2.1-.2c2.78-.24 5.56-.47 8.33-.77 5.55-.53 11.1-1.02 16.64-1.38 5.54-.35 11.1-.57 16.66-.6 5.57.07 11.1.4 16.68.36l2.1-.03h2.08c1.4.04 2.8.02 4.18.1 2.8.1 5.56.54 8.33.82 2.77.32 5.52.85 8.26 1.3 2.73.58 5.48 1.05 8.2 1.72l4.08.88c1.36.33 2.7.7 4.07 1 1.37.25 2.7.63 4.1.87 1.37.28 2.75.53 4.1.87l2.05.53 1.02.27 1 .35c1.32.44 2.62 1 3.9 1.56 1.3.58 2.6 1.06 3.92 1.57 1.3.52 2.63 1 3.92 1.57l1.96.82 1.95.9c.67.3 1.3.6 1.9.93l.9.48.43.22.24.1c.3.1.63.12.9.07.37-.08.6-.2.87-.4.26-.2.45-.44.56-.7.06-.14.1-.28.1-.43l.03-.15V600.23l-.02.1z"/><path fill="#E0E3ED" d="M446.54 488l-.05-.27c-.03-.08-.05-.2-.06-.3 0-.13-.04-.27-.02-.5l.07-.67c.02-.24.1-.48.17-.75.15-.52.4-1.1.8-1.68.4-.55.92-1.13 1.63-1.44.65-.4 1.33-.75 2.07-.96.74-.23 1.48-.4 2.25-.5.77-.12 1.52-.06 2.32.04.7.13 1.48.26 2.2.36.74.1 1.53.02 2.3.14.8.1 1.5.46 2.05.98.54.5.95 1.1 1.3 1.64.3.57.54 1.1.73 1.58.18.48.3.9.37 1.27.1.36.1.64.15.83l.05.3c.1.64-.32 1.25-.97 1.36s-1.25-.32-1.36-.97l-.07-.4-.03-.2c-.04-.14-.04-.36-.1-.6-.06-.25-.14-.55-.27-.85-.13-.32-.3-.63-.5-.97-.25-.3-.47-.7-.82-1.04-.32-.4-.8-.67-1.35-.86-.53-.23-1.15-.3-1.78-.38-.64-.06-1.2.03-1.97.08-.24.07-.63.06-.92.1-.32.03-.63.05-.95 0-.3-.07-.64-.13-.96-.14-.3 0-.62.07-.88.2-.55.26-.94.66-1.4.87-.26.07-.58.1-.75.28-.17.17-.3.38-.42.57-.2.4-.3.82-.35 1.17-.06.36-.1.65-.1.88-.03.22 0 .54 0 .7v.25c.02.64-.5 1.18-1.14 1.2-.6 0-1.1-.4-1.2-.96l-.06-.38z"/><path fill="#E0E3ED" d="M456.9 488.06l-.02 4.03c0 .63.02 1.34-.05 2.12-.1.77-.06 1.6 0 2.5.1.9.24 1.84.3 2.84.04 1 .08 2.06.06 3.16-.03 2.2-.12 4.58-.18 7.1-.03 2.52-.07 5.18-.2 7.93-.06 1.38-.08 2.77-.2 4.2l-.1 2.12v2.16c.03 2.9-.27 5.82-.1 8.75.04 1.47-.05 2.94-.05 4.4 0 1.46-.1 2.9.1 4.36.2 1.44.16 2.87.22 4.3l.08 4.17c0 2.76.3 5.42.1 7.94-.04 1.26-.16 2.5-.12 3.67l.06 3.44c0 1.1.05 2.16-.02 3.16-.08 1-.16 1.95-.16 2.85 0 1.78.07 3.34.1 4.62l.16 4.04c.02.66-.5 1.2-1.14 1.23-.65.02-1.2-.5-1.22-1.14v-.09l-.06-4.03c0-1.28 0-2.84-.06-4.62 0-.9-.12-1.85-.2-2.85-.07-1 0-2.06 0-3.16.07-2.2.2-4.58.2-7.1-.03-2.52.42-5.18.2-7.93-.05-1.36-.12-2.76-.2-4.17-.03-.7-.02-1.42-.04-2.14-.03-.72-.02-1.44.14-2.16.44-2.9-.4-5.82-.3-8.76.02-.73.15-1.46.17-2.2 0-.73 0-1.46-.02-2.2-.06-1.45-.04-2.9 0-4.35.03-.72.1-1.44.08-2.16-.02-.7-.1-1.42-.18-2.13-.14-1.42.06-2.8.2-4.2.07-.68.15-1.36.13-2.03-.02-.67-.02-1.34.05-2 .1-1.32.3-2.62.33-3.88.1-2.52-.14-4.9-.22-7.1-.06-1.1-.1-2.15-.1-3.15s.1-1.96.14-2.85c.04-.9.03-1.73-.06-2.5-.1-.78-.1-1.5-.1-2.13-.1-2.58-.1-4.04-.1-4.04 0-.65.52-1.2 1.17-1.2.66 0 1.2.53 1.2 1.2zM532.38 533.26l.12.67c.08.44.16 1.1.27 1.9.05.42.12.87.12 1.37-.04.5.07 1.03.2 1.6.15.55.35 1.14.48 1.78.1.63.2 1.3.25 2 .12 1.4.1 2.95.17 4.56.04 1.6.12 3.32.02 5.08-.04.88-.03 1.77-.1 2.68-.05.45-.08.9-.12 1.36 0 .46 0 .92.02 1.38.04 1.85-.3 3.7-.2 5.6.04 1.86-.42 3.7-.2 5.57.16.95.04 1.86.02 2.76l-.14 2.68c-.12 1.75-.1 3.47-.46 5.05-.37 1.57-.52 3.08-.67 4.5-.1.68-.18 1.35-.34 1.98-.18.62-.34 1.2-.45 1.77-.22 1.12-.35 2.1-.46 2.93l-.35 2.56c-.1.65-.68 1.1-1.33 1-.64-.08-1.1-.67-1-1.32v-.03l.02-.15.43-2.5c.13-.8.32-1.77.5-2.9.1-.54.06-1.16.08-1.8.04-.63.16-1.28.3-1.96.15-.7.3-1.4.47-2.12.18-.73.23-1.5.36-2.3.14-1.58.85-3.2.76-4.94.08-1.74-.12-3.55.3-5.35.07-.23.16-.46.2-.7.03-.2.02-.44 0-.67.02-.46 0-.93-.06-1.4-.08-.92-.22-1.85-.18-2.77.44-1.84.1-3.7.25-5.52.03-.45.1-.9.08-1.36-.02-.45-.1-.9-.2-1.34-.16-.9.02-1.77.15-2.65.05-.44.12-.88.08-1.3-.05-.43-.07-.85-.02-1.27.05-.84.23-1.67.2-2.47 0-.8-.1-1.57-.2-2.3-.1-.75-.22-1.47-.35-2.16-.28-1.37-.34-2.64-.33-3.78-.02-.56-.1-1.1-.26-1.55-.13-.48-.18-.92-.26-1.32l-.48-2.47c-.13-.64.3-1.26.93-1.4s1.25.3 1.37.94v.04zM380.18 533.67l-.4 2.5c-.06.38-.1.83-.22 1.3-.16.47-.2 1-.18 1.56.1 1.15.13 2.42-.04 3.8l-.5 4.43-.18 2.43-.24 2.54c-.1.86-.13 1.74-.26 2.63-.06.45-.1.9-.13 1.34 0 .47 0 .92.02 1.38 0 1.82-.25 3.67-.03 5.52.05.93 0 1.85.05 2.78 0 .46.02.92.05 1.38 0 .46.08.9.2 1.36.14.45.2.9.24 1.35l.17 1.33.32 2.63c.12 1.73.65 3.35.64 4.95-.05 1.6.28 3.08.56 4.44.12.68.23 1.33.27 1.96.02.64 0 1.25.14 1.8.2 1.1.46 2.06.66 2.84l.62 2.47c.15.62-.23 1.26-.86 1.42s-1.3-.22-1.45-.85v-.09l-.55-2.52c-.17-.8-.36-1.78-.62-2.9-.13-.55-.32-1.13-.5-1.76-.15-.62-.23-1.3-.3-2-.14-1.4-.28-2.9-.42-4.52-.08-.8-.15-1.62-.12-2.48.02-.85-.13-1.7-.23-2.57-.1-.87-.28-1.75-.4-2.65-.1-.45-.13-.9-.18-1.35-.07-.46-.08-.92.06-1.4.35-1.85-.62-3.68-.56-5.56 0-.47.13-.94.14-1.4 0-.48-.03-.94-.05-1.4-.07-.94-.04-1.87 0-2.8.03-.45.1-.9.08-1.37-.02-.46-.12-.9-.17-1.37-.1-.9.12-1.8.3-2.67.07-.43.15-.86.15-1.3 0-.43 0-.85.1-1.27.13-.85.4-1.66.45-2.46.2-1.6.07-3.13.13-4.53 0-.7 0-1.37.08-2 .1-.64.24-1.24.35-1.8.1-.56.17-1.1.12-1.6 0-.5.05-.95.08-1.36.1-.82.14-1.46.2-1.9l.1-.68c.1-.65.7-1.1 1.35-1s1.1.7 1 1.35v.02l-.02.05z"/><g><g opacity=".5"><path fill="#E0E3ED" d="M529.57 789.48h-148.1c0-5.8 2.04-11.05 5.3-14.84 3.28-3.8 7.8-6.15 12.8-6.15H511.5c3.15 0 6.1.94 8.7 2.6 5.6 3.55 9.37 10.45 9.37 18.38z"/><g><path fill="#E0E3ED" d="M531.17 791.05l-20.1-.03c-3.1-.06-6.18-.24-9.26-.08l-9.25.32c-3.1.14-6.17.14-9.26.18l-9.26-.04-18.5-.2-9.27-.04c-3.1-.03-6.17 0-9.26-.08l-18.5-.28-9.25-.2c-3.1-.1-6.18-.06-9.26-.05-3.1.04-6.18-.02-9.27-.04l-9.25-.1-.93-.03.02-.9c.08-3.73.84-7.48 2.5-10.87.82-1.7 1.82-3.3 3.1-4.73 1.24-1.37 2.73-2.65 4.33-3.64 1.62-1 3.4-1.73 5.26-2.17.93-.2 1.87-.34 2.83-.4.96-.04 1.84-.02 2.75-.02h5.4c1.82 0 3.63-.1 5.43-.2 3.6-.17 7.23-.17 10.84-.2l10.83-.1 10.84-.1 10.83-.14 5.4-.04c1.82 0 3.63.05 5.43.07l10.84.18 21.67-.12 10.84.24 2.78.07c1 .04 1.94.18 2.9.4 1.9.43 3.7 1.22 5.36 2.22 3.32 2 5.94 5.04 7.7 8.46 1.75 3.42 2.65 7.26 2.7 11.1l.03 1.57zm-3.27-3.13c-.2-2.85-.93-5.66-2.2-8.18-1.5-3-3.74-5.6-6.53-7.3-1.4-.87-2.9-1.5-4.47-1.86-.78-.18-1.6-.3-2.37-.34-.8-.05-1.72.02-2.62.04-3.6.1-7.22.2-10.83.26l-10.84-.1-10.83-.18-10.84-.06c-3.6 0-7.22-.1-10.83-.2l-5.42-.08-2.7-.05-2.7.04-10.85.17-10.83.14c-3.6.03-7.23.2-10.84-.06-1.8-.13-3.6-.25-5.42-.26-1.8 0-3.6.06-5.4.08-.9 0-1.86.04-2.63.1-.8.1-1.6.24-2.4.45-1.55.45-3.03 1.16-4.36 2.07-.66.47-1.3.95-1.9 1.5-.3.27-.62.55-.87.83l-.4.43-.45.5c-.46.6-1 1.27-1.44 1.94-.44.68-.87 1.4-1.26 2.1-.8 1.45-1.4 3.02-1.82 4.63-.44 1.6-.55 3.3-.57 4.98l-1.77-1.77c3.08 0 6.17-.08 9.25-.05 3.1 0 6.18-.02 9.26.06 3.08.06 6.16.14 9.25.03 3.08-.13 6.17-.28 9.25-.22 3.1.04 6.17.2 9.26.32l4.63.17h6.93l2.3.06 4.64.17c3.1.1 6.17.24 9.26.27l9.25-.04c3.1-.02 6.17-.1 9.26-.16l9.25-.17c3.08-.03 6.17-.1 9.25-.02l9.26.16c3.1.08 6.18-.1 9.26-.18l16.84-.16z"/></g></g></g></g><path fill="#E0E3ED" d="M381.87 666.8s-.15-.4-.26-1.14c-.02-.36-.08-.8-.08-1.3-.02-.5-.06-1.08-.02-1.7 0-.3.03-.64.04-.97.02-.34.14-.7.2-1.05.12-.7.16-1.46.24-2.24.1-.76.1-1.57.14-2.38.02-.82.14-1.65.3-2.48.15-.82.3-1.65.24-2.47-.02-.8-.37-1.62-.62-2.4-.25-.77-.3-1.52-.2-2.23.12-.72.2-1.4.26-2 .07-.63.07-1.2.03-1.7-.03-.5-.06-.95-.1-1.3-.03-.38-.1-.66-.12-.86l-.04-.3h3.2s.06.42.1 1.15c.04.36.07.8.1 1.3.04.5.08 1.08.06 1.7 0 .62-.07 1.3-.2 2-.12.72-.12 1.47-.1 2.25 0 .77.08 1.58.13 2.4.06.8.2 1.64.3 2.46.06.42.1.83.1 1.25 0 .4-.03.8-.18 1.22-.13.4-.33.8-.44 1.2-.1.4-.13.8-.1 1.2.06.77.26 1.52.1 2.23-.12.36-.4.7-.4 1.04 0 .32.02.65.04.96.07.62.2 1.2.26 1.7.08.5.1.94.14 1.3l.1 1.14h-3.2z"/><g><g fill="#FFF"><path d="M386.37 657.6c-.1-.03-.24-.04-.36-.02-.05 0-.1.02-.16.04h-.05c-20.46 6.97-11.3 4.86-29 13.42-1.4.67-16.54 64.02-16.98 65.9-.48 2.17 13.2 4.4 48.26 11.8.23.06.44-.07.52-.28v-.02c6-16.95 12.77-48.4 16.14-64.9.03-.1.02-.18 0-.26 0-.07-.03-.14-.07-.2-4.3-7.08-11.37-16.22-17.1-24.1l-.38-.47c-.27-.32-.56-.62-.83-.9z"/><path d="M385.44 660.24l-.57.18-2.26.72c-1.47.48-3 .84-4.5 1.32l-1.08.4c-.35.17-.7.3-1.05.5-.66.4-1.32.83-1.98 1.14-1.37.6-2.8.93-4.2 1.64-2.73 1.6-5.4 3.5-8.1 5.22l-2.05 1.28-1.04.58-.52.3-.06.04c1.17-.77.3-.2.57-.36l-.04.03s-.03.02 0 0l.13-.1c.08-.08.17-.17.24-.27.08-.1.14-.2.2-.3 0-.03 0 0 0 0v.05l-.27.9-.34 1.08c-.24.7-.56 1.42-.86 2.15-.62 1.44-1.2 2.9-1.5 4.45-.32 1.54-.37 3.15-.75 4.68-.77 3.05-2 6-2.97 9-.5 1.48-.9 3-1.35 4.52-.34 1.54-.78 3.06-.98 4.63-.16 1.6-.27 3.2-.84 4.68-.6 1.48-1.62 2.85-1.58 4.48-.02.4 0 .8-.04 1.2-.04.4-.15.78-.24 1.16l-.58 2.3-1.27 4.56-1.27 4.56c-.4 1.52-.77 3.06-1.13 4.6-.4 1.52-.62 3.1-1.17 4.58l-.42 1.1-.02.08-.02.03.04-.34-.03.13v.04-.1c0-.1-.02-.18-.05-.26-.02-.07-.05-.15-.1-.22 0-.03-.03-.06-.06-.1-.03-.04-.15-.1-.12-.07 0 .04 0 .06.02.1.3.36.98.8 1.65 1.1.68.3 1.43.52 2.2.6.78.1 1.57.12 2.35.23 1.53.27 3.02.8 4.5 1.34 1.5.54 2.98 1.12 4.52 1.48.76.2 1.54.33 2.3.5l2.35.36c3.14.4 6.2 1.1 9.3 1.74l4.62 1.05c1.54.35 3.06.78 4.6 1.17.75.22 1.53.34 2.3.5.8.12 1.57.24 2.35.33l2.37.22 1.18.1.3.05h.15l.07.02c-.14-.03.08 0-.06-.02-.55-.08-.98.22-1.16.66l-.05.17v-.02l.04-.16c.5-1.98 1.03-3.94 1.5-5.94.46-1.98.9-3.98 1.45-5.95.26-.98.48-1.98.8-2.96.28-.98.68-1.93 1.06-2.9.37-.95.77-1.9 1.04-2.9.3-.98.46-2 .68-3 .22-1 .35-2.02.5-3.04l.42-3.07c.13-1.02.34-2.02.5-3.04.15-1.02.47-2 .85-2.96.78-1.93 1.05-3.97 1.33-6l.22-1.54.32-1.5c.2-1 .56-2 .98-2.95.4-.96.85-1.9 1.1-2.9l.33-1.5.2-1.54c.14-1.03.33-2.04.65-3.02.33-.97.78-1.93.98-2.93.25-1 .15-2.07.17-3.1.03-.53.08-1.05.22-1.54l.1-.38v-.1l.02-.04c0 .1.08-.55-.04.43v-.22c-.02-.2.3 1.5.16.77l-.03-.05-.03-.1-.02-.03c-.04-.1.34.65.17.32l-.02-.02-.04-.08-.17-.35c-.45-.95-.84-1.86-1.33-2.75-.5-.9-.97-1.8-1.56-2.64-.55-.86-1.15-1.68-1.83-2.46-.67-.77-1.38-1.52-2-2.35-1.26-1.6-2.02-3.6-3.32-5.2-1.24-1.62-2.9-2.96-4.2-4.57-.64-.8-1.32-1.58-1.94-2.4-.38-.5-.68-.8-.96-1.16zm2.72-4.24l.53.56.26.28.33.4.1.14.2.25.2.3.46.64 1.77 2.5c1.2 1.68 2.04 3.62 3.3 5.25 1.2 1.68 3.04 2.9 4.2 4.62.6.83 1.1 1.76 1.6 2.67.5.9 1.08 1.8 1.7 2.6.64.84 1.33 1.64 2 2.46.65.82 1.43 1.63 2.07 2.42l.24.3.06.08.02.02c-.22-.44.3.6.26.5l.02.05.04.1.02.03c-.2-.97.26 1.36.2 1.13l.03.2v.03c-.17 1.37-.08.5-.08.63v.05l-.02.1-.08.4c-.08.5-.25 1-.46 1.47-.46.96-1.1 1.88-1.28 2.9-.23 1-.15 2.07-.23 3.1-.1 1.04-.4 2.03-.8 3-.4.97-.8 1.93-1 2.94-.23 1.02-.26 2.07-.3 3.1-.03 2.12-.62 4.1-1.32 6.06-.34.98-.7 1.96-.97 2.96-.33.98-.5 2-.6 3.04-.12 2.1-.87 4.03-1.44 6.02-.64 1.97-1.36 3.92-1.92 5.9-.28 1-.55 2-.74 3-.2 1.03-.26 2.08-.36 3.13-.1 1.05-.16 2.1-.38 3.12-.2 1.02-.5 2.02-.76 3.02-.25 1-.56 2-.88 3-.3 1-.63 1.98-1.02 2.95-.72 1.95-1.48 3.9-2.3 5.83l.07-.24-.1.26c-.43 1.16-1.6 1.98-2.96 1.8l-.28-.05h-.08l-.14-.06-.3-.1-1.1-.44-2.23-.87c-1.5-.55-3.04-.92-4.62-1.07-3.18-.18-6.3-.7-9.43-1.1-1.56-.25-3.12-.5-4.66-.84-1.56-.28-3.07-.75-4.56-1.33-.76-.28-1.5-.54-2.26-.8-.76-.2-1.53-.4-2.3-.52-1.57-.3-3.2-.2-4.83-.24-1.63 0-3.26-.1-4.77-.7-.75-.34-1.44-.9-2.16-1.36-.73-.46-1.5-.72-2.33-.94l-1.32-.3c-.46-.1-.98-.2-1.62-.5-.17-.08-.38-.22-.56-.34-.08-.05-.2-.15-.33-.28-.1-.12-.23-.25-.34-.4l-.08-.1c-.05-.07-.1-.15-.14-.24-.1-.17-.17-.35-.23-.54-.05-.2-.1-.38-.12-.57l-.03-.27v-.04l-.05-.14c-.02.12.14-1.2.07-.65v-.12c0-.4.02-.8.07-1.2.13-1.6.76-3.07 1.2-4.6.46-1.5.96-3 1.37-4.53l1.18-4.6c.4-1.52.77-3.05 1.2-4.57l.64-2.28c.1-.38.2-.77.37-1.13.15-.37.4-.7.6-1.07.88-1.4.67-3.1.9-4.66.1-.77.38-1.52.62-2.27.3-.74.6-1.48.92-2.2 1.1-3 1.93-6.04 2.7-9.1.75-3.07 1.45-6.15 2.26-9.2.43-1.53.93-3.03 1.33-4.56.43-1.53.64-3.1.87-4.7.12-.8.23-1.6.43-2.4.22-.8.45-1.5.86-2.44l.08-.2.06-.12.2-.33c.1-.1.17-.22.26-.32l.18-.18.02-.02c.2-.14-.43.27.48-.32l.07-.03.53-.25 1.06-.5 2.17-.9c1.44-.62 2.88-1.23 4.28-1.9l2.05-1.1c.7-.37 1.36-.75 2-1.23 1.27-.95 2.6-2.14 4.12-2.8.76-.38 1.56-.55 2.34-.78.4-.1.76-.24 1.14-.37l1.1-.46c1.48-.63 2.92-1.33 4.4-1.9l2.2-.88 1.12-.42.55-.22.07-.02c-.22.06.33-.1.3-.08l.06-.02.07-.02c-.1 0 1.13-.1.63-.05H386.46c.63 0 1.2.25 1.6.67l.1.13z"/></g><path fill="#E8EAF2" d="M351.4 732.47c.95 1.35-2.18 1.76-1.62.12.36-1.05 1.35-.6 1.8-.02M353.95 730.46c-.7.94-.78-1 .12-.17M359.77 730.84c-.28.64-1.1.3-.86-.26.25-.6.9-.33 1.04.17M398.03 695.9c.55 1.22-1.88 1.3-1.25-.14.32-.74 1.56-.65 1.42.28M401.1 692.8c-.04.16.12.15 0 .3-.1 0-.16.06-.28.05-.28-.43-.07-.82.45-.7-.03.12 0 .18.05.3M382.4 741.43c.74 1.4-1.72 2.42-2.15.6-.44-1.92 2.4-1.97 2.16-.6M370.53 673.46c-.8.16-1.4-.98-.5-1.23.8-.2.92.7.63 1.15M351.52 730.25c-.3.52-.92-.04-.54-.46.35-.4 1.1.04.54.45"/><g fill="#E0E3ED"><ellipse transform="rotate(-45.324 383.438 668.13)" cx="383.46" cy="668.16" rx="2.52" ry="2.52"/><path d="M385.52 670.22l-.12.13c-.06.08-.25.26-.46.38-.4.3-1.17.54-2.04.37-.44-.07-.9-.28-1.26-.62l-.27-.28c-.07-.1-.14-.16-.22-.28-.17-.23-.28-.45-.37-.7-.18-.5-.23-1.07-.1-1.6.1-.56.4-1.05.8-1.4.4-.37.92-.64 1.43-.72.52-.12 1.06-.15 1.6-.03.5.13.95.48 1.23.84.32.44.46.87.54 1.28.13.84-.05 1.55-.28 2-.13.2-.24.37-.33.47l-.13.16-.02.02zm-.55-.57s.15-.15.32-.47c.16-.3.3-.83.18-1.43-.07-.3-.2-.63-.37-.9-.22-.3-.5-.54-.88-.67-.37-.13-.8-.16-1.18-.07-.4.13-.72.33-1 .64-.3.3-.43.66-.57 1.03-.16.37-.2.82-.02 1.18.08.18.18.37.3.5.03.06.12.14.2.22l.2.18c.1.13.23.3.4.36.16.08.33.12.5.15.66.1 1.18-.15 1.48-.34.17-.1.23-.15.33-.24l.13-.13-.03.02z"/></g><path fill="#E0E3ED" d="M354.75 712.1c.04-.1.07-.2.14-.34l.2-.44c.14-.24.28-.48.44-.7.3-.43.62-.84.97-1.23.35-.4.72-.78 1.14-1.13.2-.17.43-.33.68-.46l.75-.42c.28-.13.53-.3.86-.4.15-.06.33-.1.52-.14.18-.04.37-.07.58-.05H361.45l.1.04h.04l.07.02c.08.02.1 0 .2.05.15.06.28.1.4.18.45.24.78.57 1 .9.45.66.57 1.24.7 1.67.15.44.28.75.3.76l-1.5-.48.1-.06c.07-.06.2-.25.33-.46.27-.44.53-1.04 1.05-1.74.26-.34.65-.73 1.18-1l.2-.08.06-.02c-.17.04.3-.1.25-.08h.06l.24-.05c.24-.02.58 0 .85.1.26.07.38.17.56.28.6.48.8.95.95 1.3.17.4.27.72.36 1.06.17.65.3 1.27.42 1.82.05.25.13.54.17.64.02.05.02.04 0 .02h-.03c-.28-.23-.07-.06-.13-.1h.02l.05.05.18.13c.05.04.17.14.13.08 0-.05-.1-.02-.05 0 .04-.03.07 0 .15 0 .08-.04.15-.04.24-.07l.3-.14c.4-.26.85-.6 1.27-1 .87-.76 1.57-1.77 2.22-2.8.7-1.04 1.48-2.03 2.23-3.02.77-.98 1.37-2.1 2.2-3.06.78-.9 1.47-2 2.7-2.86.16-.1.33-.2.57-.27.1-.05.24-.07.37-.08h.22l.12.02h.24l.4.13c.26.1.47.25.66.43.38.4.5.85.6 1.26.05.4.02.78-.02 1.13-.17 1.4-.6 2.58-.9 3.75-.34 1.23-.74 2.4-1.05 3.6-.32 1.2-.62 2.36-1 3.5-.4 1.12-.56 2.3-.56 3.46 0 .6 0 1.18.08 1.7.06.54.23 1.03.36 1.3.07.15.12.23.2.3.03.04.08.07.15.1 0 .02.06.02.1.03H381.72v.02h-.07c.13 0 .38-.02.38-.04.03 0 .1-.04.2-.1.18-.1.36-.23.55-.42.38-.36.73-.86 1.18-1.37.45-.5 1.04-1.1 1.98-1.4.4-.12.82.02 1.07.32l.06.06c.24.27.37.6.43.86.06.27.08.5.08.7V718.5c.14.63-.27 1.26-.9 1.4-.64.14-1.27-.26-1.4-.9-.03-.1-.05-.23-.05-.3v-.5l.02-.38c0-.1 0-.16-.02-.17 0-.02 0 .03.05.1l1.24.4c-.22.07-.56.3-.93.72-.4.4-.78.9-1.32 1.42-.26.26-.6.53-1 .76-.2.1-.4.22-.73.3l-.22.07-.12.03-.22.05c.1 0-.15.03-.13.02h-.36c-.14 0-.26.03-.4 0-.3-.03-.57-.1-.85-.2-.55-.25-1.05-.67-1.32-1.1-.6-.88-.66-1.7-.76-2.43-.04-.74 0-1.44.05-2.1.14-1.33.36-2.64.68-3.9.3-1.28.76-2.48 1.26-3.63.23-.6.43-1.18.6-1.78.17-.6.34-1.18.47-1.78.28-1.25.64-2.46.76-3.45.03-.25 0-.46.03-.63 0-.14.05-.25.12-.24.03 0 .07-.04.12-.03.02 0 .05 0 .07-.04l-.23-.04-.1-.03h.07v.02h.03l-.14.1c-.3.22-.63.72-.92 1.2-.3.48-.58 1.02-.98 1.57-.6 1.03-1.65 1.78-2.27 2.85-.36.5-.68 1.04-1.02 1.56-.38.52-.68.97-1.04 1.52-.37.5-.8 1-1.18 1.52-.4.52-.73 1.1-1.13 1.67-.4.56-.98 1.04-1.68 1.45l-.6.27c-.22.07-.48.13-.72.18-.24.05-.56.02-.83 0-.27 0-.68-.16-.97-.3-.2-.1-.18-.13-.26-.2l-.18-.14-.23-.2-.17-.18c-.1-.14-.2-.28-.23-.37-.24-.44-.34-.74-.44-1.1-.16-.65-.2-1.26-.3-1.84-.02-.3-.07-.57-.14-.8-.06-.27-.2-.43-.22-.48 0 0-.02-.04.02-.02.03.02.1 0 .1-.03l-.22.04h-.06c-.03.02.22-.05.1-.02v.02l-.06.02c-.13.06-.3.18-.42.4-.27.4-.47.98-.77 1.6-.15.3-.32.64-.6.97-.28.32-.7.64-1.2.8-.35.1-.7-.02-.93-.28l-.04-.06c-.5-.6-.66-1.17-.8-1.63-.15-.46-.3-.85-.4-1.07-.05-.1-.1-.16-.1-.2 0-.03-.08-.06-.12-.08l-.1-.03c-.1-.03.1.02.07 0H360.85c-.05-.04-.1-.04-.18-.03-.06-.02-.13 0-.2 0-.16.04-.34.1-.5.2-.33.2-.6.52-.9.82-.3.3-.6.6-.85.95-.27.34-.52.7-.75 1.06l-.3.54-.1.2c-.04.07-.1.2-.13.3v.04c-.26.6-.95.9-1.55.65-.6-.24-.9-.93-.65-1.53z"/></g></g><path fill="#E0E3ED" d="M1040.9 615.12s-.15-.9-.26-2.46c-.04-.8-.1-1.74-.1-2.83 0-1.1-.05-2.33 0-3.68 0-.67 0-1.37.03-2.1.02-.72.13-1.47.2-2.24.13-1.53.15-3.16.24-4.84.1-1.68.1-3.42.14-5.2.03-1.75.14-3.55.3-5.34.1-.9.14-1.8.2-2.7.04-.88.03-1.77.04-2.65 0-1.77-.37-3.5-.62-5.2-.24-1.67-.3-3.3-.18-4.84.1-1.54.2-3 .24-4.34.05-1.36.1-2.6.03-3.68l-.1-2.83c-.02-.8-.08-1.42-.1-1.84l-.06-.64h3.2s.05.9.1 2.47l.1 2.82c.03 1.1.07 2.32.05 3.67 0 1.33-.1 2.8-.2 4.33-.13 1.54-.12 3.17-.1 4.85-.02 1.68.07 3.42.12 5.2.07 1.75.2 3.55.3 5.34.08.9.1 1.8.08 2.7.02.88 0 1.77-.15 2.65-.14.9-.33 1.76-.44 2.63-.12.86-.1 1.72-.1 2.56.07 1.68.23 3.3.1 4.85-.13.78-.4 1.53-.4 2.26 0 .72 0 1.42.04 2.1.1 1.34.17 2.57.24 3.67.1 1.1.12 2.04.15 2.83l.1 2.46h-3.2z"/><g><g><g opacity=".5"><path fill="#E0E3ED" d="M970.98 557.74l3.25 129.38-1.25 78.6H953.9V555.7c2.16.3 4.3.58 6.4.84 4.17.5 6.4.9 10.68 1.2z"/><g><path fill="#E0E3ED" d="M972.52 556.24l.66 27.45c.07 4.33.05 8.66.2 13l.64 13 .32 6.48.2 6.5.35 13 .46 26 .26 13 .14 6.5.07 3.25.03 1.62.02.82V687.74l-.68 26-.36 13c-.13 4.33-.3 8.67-.38 13l-.2 13-.28 13-.02 1h-.98l-9.54-.13c-1.6-.03-3.18 0-4.76 0l-4.77.06h-.9l-.03-.94c-.05-4.37 0-8.75.02-13.12l.05-13.13v-6.56c.02-2.18.04-4.37-.03-6.56-.1-4.37-.25-8.75-.3-13.12l-.18-26.26c-.05-8.75-.1-17.5-.2-26.25-.02-4.37-.08-8.74-.04-13.12l.14-13.12c.06-4.38.1-8.75.07-13.13l-.05-13.13-.04-13.12.22-13.13c.1-4.38 0-8.75 0-13.13l-.08-13.12v-1.54l1.56.18c2.84.34 5.64.7 8.52 1 2.87.35 5.65.68 8.47.83l1.42.07zm-3.07 2.92c-2.43-.2-4.86-.45-7.22-.76l-8.55-1.07 1.88-1.63.05 13.12c.04 4.38 0 8.75.12 13.13l.23 13.13-.07 13.12-.13 13.13c-.07 4.38-.1 8.75-.1 13.13l-.05 13.12c-.03 4.38-.15 8.76-.2 13.13-.03 4.4-.16 8.76-.07 13.14l.13 13.12.25 26.26c.03 1.1 0 2.18-.02 3.28 0 1.1-.03 2.2-.1 3.28-.08 2.2-.23 4.38-.25 6.56-.06 2.2 0 4.38.04 6.57l.12 6.57.25 13.13c.08 4.37.23 8.75.14 13.12l-2-1.98 4.78.14c1.6.04 3.18.12 4.77.1l9.54-.08-1.84 1.8.22-13 .33-13c.1-2.17 0-4.34.02-6.5l-.06-6.5c-.02-4.34.18-8.68.33-13l.52-13c.12-4.34.1-8.67.26-13l.02-.4v-6.05l-.02-6.5-.04-6.5-.03-3.25-.08-3.25-.4-13-.5-13-.47-13-.2-6.48-.1-6.5-.18-13c-.1-4.34-.36-8.67-.53-13l-.8-24.6z"/></g></g><g opacity=".5"><path fill="#E0E3ED" d="M1053.65 793.2h-184c0-6.2 2.53-11.82 6.6-15.88 4.06-4.06 9.7-6.58 15.9-6.58h139.03c3.93 0 7.6 1 10.83 2.78 6.95 3.8 11.65 11.2 11.65 19.7z"/><g><path fill="#E0E3ED" d="M1055.24 794.8l-24.6-.05c-1.9-.04-3.82-.1-5.74-.1l-2.88-.04-2.87.1-11.5.3c-3.83.17-7.66.1-11.5.13-3.83 0-7.66.05-11.5 0l-23-.2c-7.66-.04-15.33-.02-23-.14l-23-.3-11.5-.2c-3.83-.05-7.66-.02-11.5 0-7.66-.02-15.32-.1-23-.2h-.9l.02-.9c.05-2.26.34-4.53.98-6.7.64-2.2 1.6-4.28 2.83-6.18 2.47-3.84 6.17-6.82 10.35-8.6 2.1-.87 4.3-1.45 6.57-1.7 1.1-.12 2.3-.15 3.36-.14h3.28c4.37.08 8.74-.13 13.1-.24 2.2-.1 4.37-.12 6.55-.12l6.55-.05 13.1-.1 26.2-.23 6.55-.03 6.56.1 13.1.15 26.2-.1 13.1.22c2.2.1 4.3-.1 6.7.17 2.3.25 4.53.85 6.67 1.73.53.23 1.05.47 1.57.73l.38.2.23.12.2.1.7.4c.46.26.97.64 1.46.96.5.33.93.7 1.4 1.05 1.8 1.46 3.36 3.2 4.66 5.12 2.6 3.85 4.06 8.5 4.1 13.16l.02 1.6zm-3.23-3.15c-.27-3.53-1.47-6.98-3.43-9.9-1.12-1.7-2.48-3.22-4.04-4.5-.4-.3-.8-.65-1.2-.93-.43-.27-.75-.54-1.26-.82l-.7-.4-.18-.12-.13-.06-.34-.18c-.45-.23-.9-.45-1.37-.64-1.86-.8-3.83-1.3-5.84-1.52-.5-.06-1-.1-1.5-.1-.22-.02-.52-.02-.78-.02h-.8c-1.1 0-2.18 0-3.27.05-4.37.12-8.74.2-13.1.28-8.74-.03-17.47-.14-26.2-.27l-13.1-.06-6.56-.03-6.54-.12-6.56-.1c-2.18 0-4.36-.1-6.55-.04l-13.1.15-13.1.13-6.55.07-3.28.04c-1.1 0-2.18-.04-3.28-.06-2.18-.1-4.36-.25-6.55-.32-2.2-.06-4.37-.02-6.56 0l-3.27.06c-1.12.02-2.07.1-3.1.23-2 .3-3.96.88-5.8 1.7-1.82.86-3.52 1.97-5.02 3.28l-.53.48-.57.58c-.33.32-.67.72-1 1.1-.63.75-1.26 1.53-1.8 2.36-2.25 3.27-3.67 7.2-3.63 11.27l-1.76-1.75 11.5-.08 11.5.04c3.83.06 7.66.15 11.5.1l5.75-.16 2.88-.1h2.88c3.83.04 7.66.15 11.5.25 3.83.1 7.66.27 11.5.22 1.9 0 3.83-.03 5.75.03l5.76.17 11.5.28c3.83.1 7.66 0 11.5 0 3.83 0 7.66-.1 11.5-.15l11.5-.18c3.82-.02 7.66-.13 11.5-.04l11.5.16 2.86.03 2.88-.06 5.75-.14 21.36-.18z"/></g></g></g><g><g><path fill="#E8EAF2" d="M1126.42 569.9s-.08-4.75-11.68-10.94c-9.94-5.3-36.5-3.42-68.5-1.75-18.02.96-37.76 1.84-57.2 1.32-3.3-6.67 6.1-9.3 3.75-16.92-2.55-8.2-19.65-13.72-25.2-19.74v-.65l1.34.17c49.53 5.92 87.5 14.9 87.5 14.9s3.96 4.9 40.85 11.53c36.88 6.64 29.12 22.12 29.12 22.12zM1059.48 517.94s-36.6-9.15-94.4-15.25c-2.1-.24-4.22-.45-6.36-.67-.76-4.84 2.44-10.25 11.6-15.33 15.4-8.52 33.67-9.84 50.23-14.96 14.12-4.36 2.2-14.38 4.35-23.47 1-4.2 4.72-8.8 6.88-11.74 8.12-11-1.95-21.53-13.5-29.05-.02-.02-.04-.04-.06-.04 4.1-.16 8.36-.16 13 .2 17.55 1.37 23.3 21.26 24.06 27.27s2.96 24.74 5.26 48.66c1.15 11.9.2 24.5-1.06 34.38z"/><path fill="#E8EAF2" d="M1126.42 569.9s-7.43 2.8-26.58.9c-14.46-1.4-52.77-13.34-53.6-13.6 32-1.66 58.56-3.55 68.5 1.76 11.6 6.2 11.68 10.95 11.68 10.95zM871.62 536.72s-35.08 2.53-49.66.85c-13.47-1.56-21.76-5.96-21.76-5.96l-.03-.06v-.03l-.12-.37c0-.03 0-.06-.02-.1 0-.02 0-.06-.02-.1-.2-1.6.38-5.55 10.27-8.4 6.65-1.9 30.93 5.6 61.35 14.2z"/><g fill="#E0E3ED"><path d="M1063.3 518.46c-.82 6.06-1.77 11.06-2.4 14.24-.38 1.92-.64 3.17-.7 3.57 0 0-39.88-8.98-91.9-14.9l-1.4-.16c-5.7-.63-11.28-1.2-16.68-1.7l-3.04-.3h-.1l-2.25-.2-1.1-.1c-.74-.08-1.46-.15-2.2-.2-5.1-.43-10.02-.82-14.7-1.17l-5.15-.36c-.66-.03-1.3-.07-1.94-.12l-1.9-.12-2.54-.16-1.8-.1-3.53-.2c-1.74-.1-3.4-.2-5.03-.27l-4.7-.23c-.8-.04-1.56-.08-2.32-.1l-7.28-.3-3-.1c-.26 0-.5 0-.73-.02l-1.65-.05c-.34 0-.68-.02-1-.03h-.47l-1.1-.03c-4.85-.12-7.5-.14-7.5-.14.6-4.96 1.27-9.87 2-14.74.24-1.62 1.65-2.8 3.3-2.76 26.86.7 55.6 2.3 77.08 4.33 2.25.22 4.48.43 6.68.66 49 4.98 86.3 12.85 99.07 15.76z"/><path d="M1065.65 518.8c-.2 1.47-.43 3-.67 4.5-.24 1.5-.5 3-.77 4.5l-.83 4.48-.86 4.37-.02.1c-.24 1.25-1.46 2.06-2.7 1.8h-.1c-2.27-.54-4.62-.96-6.92-1.54-2.32-.52-4.62-1.13-6.96-1.55-2.34-.4-4.7-.8-7.05-1.1l-7.08-.94c-2.35-.32-4.7-.66-7.05-1.04l-7.04-1.12-14.06-2.33c-4.7-.74-9.4-1.5-14.1-2.2-2.34-.36-4.7-.68-7.05-1-2.36-.32-4.7-.65-7.07-.94l-7.07-.9-7.08-.83-7.1-.87-3.55-.43-3.52-.4-.45-.08c.17.06.37.1.55.08h-.2l-4.46-.5-4.47-.43-8.96-.95-4.48-.45c-1.5-.16-2.97-.24-4.47-.34l-9-.5-17.94-1.1-4.47-.22-2.26-.1-2.25-.05-8.98-.08c-.78 0-1.4-.65-1.4-1.42v-.18c.52-4.23 1.2-8.43 1.8-12.64l.24-1.58.06-.4.04-.25.04-.2c.03-.15.1-.4.17-.58.06-.17.13-.35.22-.5.7-1.34 2.05-2.3 3.54-2.44.2-.03.37-.03.56-.03h.42l.8.04 1.6.05 3.18.1c2.12.06 4.25.16 6.37.2 2.12.05 4.24 0 6.37-.03 4.27-.1 8.5.1 12.77.24 8.5.3 17 .7 25.5 1.25l12.74.8c4.25.27 8.52.67 12.74 1.05 4.26.52 8.43 1.04 12.67 1.6l6.33.87 6.34.77c4.22.5 8.45 1.05 12.67 1.62 4.2.6 8.44 1.12 12.63 1.9 4.18.8 8.35 1.67 12.54 2.4l12.6 2.16c8.4 1.44 16.77 3 25.13 4.74 1.2.25 2 1.38 1.82 2.58v.05zm-4.98 1.54c-7.56-1.64-15.16-3.14-22.78-4.55-4.17-.8-8.35-1.47-12.53-2.16-4.2-.6-8.4-1.1-12.6-1.63-2.1-.28-4.2-.56-6.3-.93l-6.26-.98-12.55-1.92-6.3-.9-6.28-.8-12.63-1.44c-4.23-.53-8.4-1.07-12.63-1.54-2.1-.23-4.2-.4-6.32-.57l-6.34-.4c-4.23-.27-8.47-.4-12.7-.56-4.25-.17-8.5-.24-12.72-.45-4.24-.2-8.48-.17-12.7-.77-2.1-.24-4.22-.53-6.34-.6-2.12-.07-4.24-.06-6.36-.1-1.06 0-2.12-.02-3.18 0l-1.6.03-.8.02h-.35c-.04 0-.08 0-.1.03-.27.07-.47.28-.52.5l-.22 2.33c-.17 2.1-.4 4.2-.65 6.32-.2 2.1-.44 4.2-.76 6.3l-2.93-3.38c1.5.02 3 .15 4.5.23l2.26.15 2.3.12 2.25.1 2.24.08 4.53.14 4.5.12c1.53.05 3.02.1 4.52.18l9.02.5 8.98.7 2.28.18c.74.07 1.5.1 2.24.13l2.27.1 2.25.06 4.5.15c1.5.1 3 .17 4.5.33s2.96.3 4.5.48l4.47.62h-.23c.28 0 .6.04.87.13l-.56-.1 7.13 1.03c2.35.37 4.73.58 7.1.8 2.4.2 4.72.5 7.12.87 2.36.36 4.72.78 7.07 1.17 2.36.37 4.7.83 7.07 1.16l3.54.53 3.54.5c2.36.33 4.73.62 7.1.9l7.1.9c4.74.63 9.47 1.25 14.2 1.92 2.37.3 4.73.72 7.1 1.08 2.35.34 4.7.8 7.04 1.25 2.34.48 4.67 1 7 1.5 2.34.52 4.7.97 7.03 1.44 2.34.45 4.7.77 7.07 1.17 2.37.37 4.7.9 7.06 1.37l-2.6 1.76.83-4.52.78-4.4c.25-1.48.48-2.95.7-4.43l.3-2.23z"/></g><path fill="#E0E3ED" d="M1061.86 518.22l-.07.5-.03.1c-.2 1.3-1.4 2.2-2.68 2.02l-.25-.05c-3.58-.92-7.18-1.77-10.8-2.6-3.6-.88-7.18-1.83-10.82-2.5-1.82-.36-3.7-.46-5.52-.76-.9-.15-1.8-.3-2.7-.52-.92-.22-1.83-.38-2.72-.64-1.8-.47-3.6-.93-5.4-1.33-1.82-.4-3.66-.64-5.5-.9-1.84-.26-3.67-.54-5.5-.76l-5.54-.62c-3.7-.4-7.4-.73-11.06-1.17-3.68-.42-7.37-.8-11-1.56-1.83-.32-3.65-.72-5.48-.96l-2.75-.4-2.77-.24c-3.7-.24-7.4-.33-11.1-.76l-5.52-.66-5.5-.73c-1.84-.26-3.67-.5-5.52-.7-1.84-.2-3.68-.4-5.53-.57-1.84-.16-3.7-.33-5.53-.47l-5.56-.32c-3.7-.23-7.42.03-11.12-.14-3.7-.04-7.37-1.15-11.1-1.18-1.84 0-3.7.34-5.56.2l-5.56-.26-11.12-.46h-.07c-1.18-.06-2.1-1.05-2.04-2.23 0-.08 0-.18.02-.26.58-3.53 1.22-7.07 1.86-10.6.62-3.56 1.3-7.1 1.98-10.62.66-3.54 1.5-7.05 2.63-10.48 1.14-3.42 2.37-6.83 3.12-10.34.35-1.77.68-3.55 1.1-5.3.43-1.75 1.07-3.44 1.67-5.14 1.2-3.4 2.68-6.7 4.1-10 1.4-3.3 2.78-6.63 4.08-9.97 1.3-3.35 2.64-6.7 4.3-9.94 1.68-3.2 3.58-6.33 5.85-9.22 2.25-2.9 4.95-5.53 8.13-7.52 3.18-2 6.94-3.03 10.65-3.18 1.88-.07 3.72.08 5.56.3 1.78.25 3.57.56 5.36.83 3.57.6 7.1 1.36 10.6 2.25l10.38 2.82c3.44.88 6.84 1.83 10.28 2.53l2.58.5.6.12.66.1 1.32.2c.9.13 1.77.28 2.65.46l.65.13.33.07c.12.02-.07 0-.02 0h.08l.16.03 1.33.2 2.62.42c.86.12 1.7.26 2.6.36.86.1 1.73.22 2.6.3.88.07 1.76.1 2.64.13 1.75.1 3.52.04 5.28-.05 1.77-.08 3.53-.18 5.3-.38 3.55-.34 7.05-.83 10.7-1.16 1.78-.12 3.6-.3 5.4-.4.92-.02 1.83 0 2.75 0 .9.02 1.83.08 2.74.15 1.83.15 3.66.3 5.5.4l.67.05.75.06c.46.05.85.06 1.37.15l1.53.25 1.46.32c1.94.48 3.83 1.22 5.6 2.18 1.7 1.02 3.37 2.18 4.73 3.6 2.8 2.82 4.55 6.33 6.18 9.68 1.6 3.38 3.22 6.77 4 10.48.2.95.34 1.88.4 2.9l.1 2.68c.03.9.1 1.8.18 2.68.06.9.22 1.78.35 2.66.3 1.77.76 3.52 1.04 5.3.14.87.23 1.76.3 2.65.1.9.17 1.8.2 2.68.37 7.16.73 14.32 2 21.4.57 3.54 1 7.03 1.06 10.7 0 3.7.12 7.28.3 10.9.2 3.63.3 7.27.04 10.9-.16 3.6-.55 7.2-.98 10.77zm-4.76-.58c.85-7.03 1.4-14.07 1.95-21.12.2-3.5.05-7.1-.55-10.5l-.44-2.6-.4-2.66c-.2-1.78-.36-3.56-.44-5.35-.24-7.17-1.55-14.22-2.82-21.28-.17-.88-.28-1.77-.38-2.66l-.16-1.33-.1-1.34c-.05-1.8.1-3.62.1-5.42-.05-1.8-.26-3.58-.63-5.34l-.52-2.64-.5-2.34c-.72-3.22-1.32-6.67-2.9-9.68-1.56-3.04-3.95-5.48-6.32-7.6-1.2-1.06-2.4-2.1-3.74-2.9-1.3-.87-2.73-1.58-4.23-2.12l-1.13-.37c-.36-.1-.73-.2-1.1-.27-.37-.1-.87-.13-1.3-.2l-.58-.08-.66-.07c-1.74-.16-3.5-.18-5.25-.1-3.52.24-6.98.23-10.6.34l-10.7.25-5.44.1-5.45.04-5.47.1c-.9.03-1.85 0-2.78 0-.92-.03-1.75-.02-2.73-.1l-1.34-.1H980.24l-.2-.04-.34-.04-.68-.1c-.9-.12-1.77-.25-2.65-.4l-1.33-.22-.66-.1-.75-.15c-.88-.2-1.8-.36-2.68-.57-3.58-.82-7.1-1.8-10.53-2.96l-10.17-3.43-5.02-1.7c-1.66-.6-3.33-1.17-5.03-1.68-1.68-.54-3.4-.9-5.14-1.27-.83-.15-1.67-.28-2.5-.3-.85-.05-1.68-.05-2.52.03-1.65.2-3.26.6-4.78 1.2-1.53.58-2.96 1.35-4.32 2.27-2.7 1.85-5 4.3-7 7.02-2 2.73-3.76 5.7-5.37 8.76-3.23 6.12-6.95 12.4-8.86 19.24-.96 3.43-1.67 6.93-2.55 10.36-.47 1.7-.92 3.42-1.6 5.06-.7 1.63-1.52 3.23-2.25 4.87-1.42 3.3-1.77 6.87-2.12 10.45-.3 3.56-1.05 7.02-1.92 10.46-.82 3.46-1.58 6.93-2.28 10.4-.66 3.5-1.2 7.02-1.76 10.54l-2.56-3.04c3.72.1 7.45.27 11.17.44l5.57.28c1.87.04 3.7.57 5.56.8 3.7.37 7.46-.28 11.17.1 3.72.27 7.4.97 11.12 1.27 3.7.34 7.4.67 11.12.95l11.14.85c3.73.3 7.42.6 11.14.96 3.7.38 7.4.9 11.08 1.35 3.7.45 7.42.68 11.15.9 3.73.2 7.42.7 11.1 1.3 3.7.52 7.34 1.25 11 1.92l5.5 1.06 5.5 1 2.74.5 2.77.43c1.84.26 3.7.4 5.56.63.93.1 1.84.25 2.77.37.93.12 1.84.3 2.75.5 1.82.4 3.6.94 5.44 1.3 3.65.72 7.33 1.32 11 1.97 3.66.7 7.3 1.47 10.97 2.27l-2.93 2.06.05-.52v-.04zM1127.22 572.18c-1.05.4-1.88.63-2.8.88-.9.23-1.8.38-2.68.53-1.78.28-3.55.46-5.32.6-1.76.16-3.53.18-5.3.18-1.75 0-3.5-.05-5.25-.13-1.74-.07-3.48-.23-5.22-.4l-.65-.06-.32-.04-.4-.05-1.27-.17c-.84-.1-1.68-.22-2.58-.4-.9-.15-1.78-.32-2.64-.53l-2.54-.62c-1.7-.4-3.34-.94-5.02-1.36-3.34-.87-6.66-1.77-9.96-2.72l-9.9-2.87c-3.3-.95-6.57-1.95-9.84-2.96-1.65-.5-3.26-1.06-4.9-1.6-1.6-.55-3.24-1.1-4.85-1.68l-.16-.07c-.83-.3-1.27-1.25-.96-2.1.24-.65.86-1.06 1.53-1.07 3.56-.02 7.12-.08 10.68-.16l5.33-.25c1.78-.07 3.56-.2 5.34-.37 3.55-.34 7.1-.83 10.66-1.22 1.78-.22 3.57-.28 5.36-.43.9-.08 1.8-.1 2.7-.1l2.68-.06c1.8.05 3.6.07 5.4.2l2.7.17 2.72.24c.9.07 1.8.18 2.72.3.9.13 1.8.2 2.72.37l2.72.48 2.74.62c.92.27 1.83.57 2.74.86.9.42 1.86.76 2.72 1.22 1.53.8 3.25 1.75 4.78 2.8 1.56 1.07 3.08 2.22 4.48 3.65.7.7 1.38 1.47 2 2.36.3.45.6.93.85 1.47.13.3.26.55.36.88.05.15.1.32.14.5l.07.32c.02.13.04.18.05.47.04 1-.57 1.9-1.46 2.25l-.14.06zm-3.25-4.08l.05 1.85v.13l-.05-.12c-.02-.1-.1-.23-.14-.35-.13-.25-.3-.53-.48-.82-.4-.56-.87-1.13-1.42-1.68-1.08-1.1-2.38-2.1-3.75-3l-1.04-.7-1.06-.6c-.66-.43-1.52-.85-2.28-1.27-.7-.36-1.38-.58-2.06-.9l-2.28-.7-2.42-.52-2.5-.37c-.84-.14-1.7-.18-2.56-.28-.42-.04-.85-.08-1.28-.15l-1.3-.12-2.6-.23-2.6-.16c-1.76-.13-3.52-.14-5.28-.22-1.76 0-3.53-.1-5.3-.03l-5.3.15c-1.77.08-3.54.1-5.3.23l-5.33.33c-1.78.12-3.55.2-5.32.37l-5.32.44-10.65.87.75-5.93c1.65.46 3.27.96 4.9 1.45 1.63.5 3.28.93 4.9 1.48 1.62.5 3.2 1.13 4.8 1.75l4.8 1.84c1.62.53 3.22 1.14 4.87 1.57 1.64.45 3.28.92 4.94 1.3l4.98 1.12c1.67.34 3.3.8 4.96 1.16.83.17 1.64.45 2.46.67.8.25 1.6.56 2.42.8.8.27 1.6.54 2.44.75.8.2 1.63.33 2.45.46.8.15 1.65.25 2.5.35l1.28.16c.33.04.82.05 1.22.08 1.7.1 3.38.17 5.07.2 1.68.03 3.37.04 5.04-.02 1.68-.03 3.35-.14 5-.24 1.66-.12 3.3-.27 4.92-.52.8-.12 1.6-.26 2.38-.43.17-.03.33-.1.5-.13z"/><path fill="#E0E3ED" d="M942.06 395.3s.32.07.93.24c.3.1.66.17 1.1.33.42.14.9.43 1.5.53.3.06.65-.08 1-.1.34-.02.66.13.98.36.32.23.63.52 1 .62.38.08.78.13 1.2.14.85.02 1.76-.03 2.73-.03.48 0 .96.06 1.43.17.48.1.9.47 1.33.77.43.3.9.5 1.47.47.55 0 1.14-.13 1.64.1 1.03.34 1.93 1.2 2.98 1.68 1.05.46 2.1 1 3.44.7.3 0 .6.07.85.26.25.22.47.55.72.76.13.1.26.2.42.18.15 0 .34-.1.5-.14.37-.13.62.1.92.15 1.18.32 2.32.9 3.52 1.28.6.16 1.22.34 1.84.44.64.07 1.23.3 1.77.85.55.53 1.16.8 1.88.45.36-.13.68-.15 1-.02.3.07.6.24.9.4l.92.52c.3.14.62.26.95.3.65.1 1.32-.06 1.98-.1 1.3 0 2.64.15 3.95.32.65.04 1.3.24 1.94.35.65.06 1.3-.07 1.97-.3.66-.25 1.3-.37 1.95-.5.63-.1 1.27-.25 1.9-.35 1.27-.16 2.52-.38 3.76.2 1.24.42 2.45-.18 3.62-.54.6-.18 1.17-.37 1.76-.33.3.05.58.18.87.26.3.06.6.02.87-.03.56-.13 1.1-.37 1.66-.43.28 0 .55-.02.83.08.28.1.55.26.83.4 1.1.66 2.08-.5 3.1.1.53.26 1 .24 1.47-.15.47-.4.94-.36 1.4-.23.46.14.92.3 1.36.36.44.1.86.12 1.27.07.4-.06.8-.23 1.18-.34.4-.1.76-.1 1.12 0 .36.1.7.26 1.03.3.33.05.65 0 .95-.1 1.22-.5 2.2-.55 2.87-.53.67 0 1.03.07 1.03.07 1.3.28 2.12 1.56 1.84 2.85-.22 1.06-1.1 1.8-2.13 1.9l-.3.02s-.3.03-.88-.04c-.56-.1-1.42-.13-2.52-.63-.28-.06-.58-.07-.9 0-.3.1-.63.3-.97.45-.34.16-.7.22-1.06.13-.37-.08-.76-.28-1.16-.3-.4 0-.8.1-1.22.26-.42.1-.84.34-1.28.58-.44.2-.9.28-1.4-.2-.25-.23-.5-.4-.74-.4-.25-.02-.48.12-.73.28-.94.87-2.07-.8-3.1 0-.28.13-.54.3-.8.42-.28.1-.55.1-.83.1-.57-.05-1.14-.3-1.72-.4-.3-.05-.6-.1-.87-.02-.28.1-.57.23-.86.3-.6.1-1.2 0-1.8-.13-.62-.13-1.23-.3-1.85-.34-.63-.04-1.25-.05-1.88.3-1.25.9-2.54.78-3.84.7-.66-.04-1.3-.14-1.97-.28-.32-.08-.65-.12-.97-.23-.33-.1-.66-.28-.98-.46-.65-.38-1.3-.63-2-.53-.32.06-.67.2-1 .3-.35.12-.7.17-1.04.2-1.35.17-2.64.47-4.03.06-.67-.3-1.3-.8-1.98-.86-.35-.05-.7 0-1.06.1-.36.12-.73.3-1.1.47-.38.16-.75.28-1.1.27-.17 0-.34-.02-.5-.13-.15-.1-.3-.3-.43-.5-.26-.44-.53-.8-.87-.8-.34-.07-.72.12-1.1.32-.4.22-.77.38-1.12.4-.34.02-.65-.16-.97-.3-.63-.2-1.22-.6-1.85-.8-1.25-.43-2.5-.7-3.7-1.2l-.43-.17c-.15-.06-.3-.15-.4-.34-.1-.16-.2-.38-.34-.48-.12-.12-.28-.13-.44-.15-.3 0-.68.13-1 .13-.3-.02-.6-.16-.84-.35-.96-1-2.08-1.34-3.16-1.74-1.08-.37-2.18-.55-3.2-.87-.52-.16-1-.4-1.47-.6-.5-.2-1-.27-1.54-.2-.53.06-1.06.15-1.5.03-.47-.12-.9-.28-1.32-.46-.82-.38-1.58-.83-2.33-1.12-.37-.15-.74-.26-1.1-.33-.37-.07-.77.05-1.14.12-.37.08-.7.1-1-.03-.28-.13-.53-.37-.8-.43-.55-.13-1.1-.02-1.56-.02-.46 0-.84-.04-1.16-.05-.63-.02-.96-.07-.96-.07-1.3-.2-2.2-1.43-2-2.74s1.43-2.22 2.74-2.02h.03l.1.03zM1124.02 570.05v.02c0 .07 0 .02 0 0s0-.06-.03-.12c-.03-.1-.1-.23-.13-.35-.12-.27-.28-.56-.45-.85-.38-.58-.83-1.17-1.36-1.73-1.05-1.14-2.32-2.18-3.67-3.15-1.35-.98-2.8-1.84-4.28-2.7l-.27-.15-.14-.1c-.04 0 .22.12.07.04l-.07-.03-.6-.3-1.2-.55-2.18-.75-2.44-.58c-.83-.16-1.68-.28-2.52-.42-1.7-.26-3.4-.46-5.15-.5h-2.6c-.87 0-1.75.04-2.62.03-.87-.02-1.74 0-2.62-.02l-2.62-.1c-3.5-.08-7.04-.34-10.56-.25l-2.65.05-2.64.16-5.3.35c-7.06.5-14.1 1.23-21.17 1.82-3.53.25-7.07.53-10.62.73-1.76.06-3.53.15-5.3.17h-5.34c-1.78-.03-3.55-.04-5.33 0-1.77.02-3.55.04-5.33.14l-2.66.12-2.66.17-5.34.3c-1.78 0-3.56.08-5.34.05l-5.34-.13c-.9-.02-1.78-.06-2.67-.1l-1.35-.08-.73-.04-.66-.05-5.3-.43-5.3-.42-2.64-.2-1.33-.1-.67-.06-.18-.02h-.08l-.17-.03-.33-.05-10.56-1.13-1.3-.12-.4-.04-.34-.04-.66-.1-2.64-.32-5.3-.68c-3.5-.44-7.13-.72-10.62-1.34-3.53-.5-6.97-1.5-10.4-2.5-.85-.25-1.72-.44-2.58-.66-.86-.24-1.73-.4-2.6-.57-1.75-.32-3.55-.43-5.3-.8-6.93-1.54-13.8-3.33-20.67-5.16-6.87-1.84-13.67-3.87-20.5-5.73-6.83-1.95-13.7-3.7-20.42-5.95-3.36-1.12-6.66-2.43-10.05-3.46-3.36-1.13-6.83-1.86-10.3-2.55-1.74-.32-3.45-.76-5.16-1.16l-5.1-1.37c-3.4-.9-6.8-1.84-10.2-2.46l-1.3-.22c-.42-.07-.84-.1-1.27-.14-.86-.12-1.68-.1-2.52-.1-1.48.05-3.3.7-4.83 1.3-1.58.64-3.12 1.42-4.32 2.5-1.22 1.05-2 2.48-1.8 3.75.1.55-.3 1.08-.85 1.17-.53.08-1.04-.26-1.16-.78v-.05c-.46-2-.35-4.13.42-6.07.75-1.94 2.1-3.63 3.73-4.78 1.6-1.24 3.4-2.03 5.22-2.7.43-.2.9-.32 1.36-.44l1.38-.37c.92-.3 1.86-.42 2.8-.58 1.86-.37 3.73-.5 5.6-.65 1.87-.15 3.74-.1 5.6-.16 1.87.03 3.73.14 5.6.2 1.83.07 3.67.25 5.5.36 1.85.15 3.68.23 5.5.34 1.85.1 3.68.2 5.52.2l2.76.05 2.75-.05c1.84 0 3.68-.1 5.5-.2 1.84-.12 3.67-.26 5.5-.4 1.82-.17 3.64-.36 5.45-.58 1.8-.23 3.6-.47 5.4-.75.87-.16 1.76-.3 2.63-.5.84-.18 1.8-.4 2.44-.62.17-.06.36-.1.54-.1h.04l8.63-.04 2.16.03 2.14.05 4.3.1 4.28.14 4.3.15c1.43.06 2.9.1 4.3.2l4.3.3c1.44.1 2.83.27 4.28.4l4.27.46 2.15.24c.7.1 1.42.13 2.13.2l4.3.4 8.56.55 4.3.22 4.3.25-.22-.02c.27 0 .54.04.8.12l-.5-.1 3.44.2 3.4.24 6.8.6c1.12.1 2.25.17 3.38.3 1.14.15 2.23.26 3.42.47 2.24.37 4.47.82 6.73 1.1 2.25.35 4.53.57 6.8.87 2.25.25 4.53.46 6.8.74 2.25.25 4.5.55 6.77.9 1.12.16 2.25.34 3.37.56 1.1.22 2.24.4 3.35.65l6.66 1.55 3.35.7c1.12.23 2.25.4 3.37.6 4.5.74 9.02 1.28 13.46 2.3 2.23.48 4.43 1.1 6.65 1.6 2.22.5 4.45.93 6.72 1.22l3.4.45c1.13.14 2.24.4 3.37.58 2.23.5 4.44 1 6.66 1.63l1.14.72c-.22-.24 0 0 .1.06.1.1.26.2.4.3.3.2.63.42.97.6.7.4 1.45.77 2.2 1.13 1.53.7 3.12 1.34 4.74 1.9l2.44.83c.83.26 1.66.5 2.5.74 1.66.45 3.32.94 5.02 1.3 1.7.37 3.4.75 5.1 1.04l5.13.94 2.56.5 2.55.54c1.7.33 3.4.76 5.1 1.14 1.8.4 3.42.86 5.15 1.2 1.7.36 3.44.83 5.2 1.27l2.6.65 2.6.8c.85.3 1.73.48 2.57.85.85.34 1.7.7 2.54 1.07.86.32 1.66.82 2.48 1.27.8.48 1.64.9 2.38 1.53l1.15.9c.38.28.77.56 1.1.94l1.04 1.07.5.54c.17.2.3.42.46.62l.9 1.26c.3.4.47.93.72 1.4.5.92.76 1.98 1.02 3.02.08.54.14 1.1.2 1.63 0 .54-.03 1.1-.05 1.64-.1.55-.14 1.1-.3 1.64-.14.57-.25 1.02-.6 1.75-.54 1.18-1.95 1.7-3.14 1.15-.83-.4-1.34-1.2-1.38-2.06v-.05zm2.23-5.36l-1.98 4.14.1-.3c.05-.13.08-.3.12-.44.07-.3.08-.64.14-.95l.02-.97c-.05-.33-.1-.65-.12-.98-.17-.64-.27-1.3-.62-1.9-.16-.32-.23-.65-.46-.94l-.6-.9-.3-.44-.4-.4-.76-.83c-.23-.3-.55-.53-.85-.77l-.9-.74c-.58-.53-1.32-.9-2-1.35-.67-.43-1.32-.9-2.1-1.24-.72-.36-1.46-.73-2.2-1.13-.7-.4-1.53-.66-2.3-1l-2.34-.96c-.8-.28-1.6-.5-2.4-.73l-2.45-.7c-.8-.25-1.7-.34-2.54-.52-.86-.15-1.7-.33-2.58-.44l-1.3-.2-1.24-.15c-1.74-.24-3.5-.4-5.23-.7-.87-.13-1.73-.3-2.6-.44l-2.58-.53c-1.73-.33-3.43-.84-5.13-1.27-.86-.22-1.7-.45-2.56-.7l-2.56-.67c-1.7-.48-3.43-.86-5.14-1.3l-5.16-1.4c-1.72-.5-3.44-1.05-5.18-1.66-.87-.33-1.74-.65-2.64-1.04-.45-.2-.9-.42-1.38-.68-.25-.15-.47-.25-.74-.45-.3-.23-.4-.2-1.08-.9l1.58.98c-2.2-.37-4.42-.83-6.62-1.32-2.2-.5-4.36-1.26-6.53-1.93-2.17-.73-4.4-1.17-6.62-1.55-2.23-.35-4.5-.57-6.73-.92-2.25-.32-4.45-.84-6.67-1.33-2.2-.52-4.4-1.1-6.63-1.54-1.1-.22-2.22-.47-3.34-.63l-3.37-.48-6.77-.7c-1.14-.1-2.26-.3-3.38-.42-1.13-.13-2.25-.3-3.36-.5l-3.36-.55-3.34-.6-6.7-1.22c-2.23-.3-4.45-.75-6.7-.97-2.27-.3-4.54-.4-6.8-.62-2.2-.17-4.5-.38-6.74-.7l-6.77-.84-3.37-.48-3.34-.44-.48-.1c.18.07.4.1.6.1h-.22l-4.26-.53c-1.36-.16-2.82-.32-4.23-.46l-8.55-.77-4.26-.2c-.72-.04-1.43-.1-2.15-.1h-2.13l-4.3-.02c-1.4 0-2.87.03-4.3-.03l-4.26-.1c-1.42-.06-2.8-.15-4.26-.22l-4.25-.2-4.3-.18-17.05-.7.84-.12c-.67.2-1.1.26-1.6.38-.5.08-.98.2-1.45.26-.96.16-1.9.28-2.85.4-1.9.22-3.77.4-5.65.46-1.87.08-3.74.14-5.6.1-1.88-.04-3.74-.08-5.6-.15-1.86-.1-3.72-.12-5.57-.2-1.85-.06-3.7-.08-5.56-.1-1.85-.05-3.7 0-5.56 0-1.85 0-3.72.06-5.56.02l-5.53-.1c-1.8-.02-3.62-.07-5.42-.04-1.8.1-3.6.1-5.36.3-1.77.23-3.54.37-5.23.73-.86.15-1.73.28-2.53.54l-1.23.35c-.4.1-.8.22-1.18.4-1.54.58-3.03 1.27-4.2 2.2-.62.44-1.08.96-1.6 1.45-.22.27-.4.56-.6.83-.24.27-.32.6-.5.9-.28.6-.43 1.26-.57 1.94-.08.68-.12 1.4 0 2.1l-4.28.75c-.15-1.42.27-2.75.87-3.8.62-1.08 1.43-1.87 2.25-2.52 1.66-1.3 3.4-2.13 5.16-2.83.88-.34 1.82-.7 2.64-.94.72-.3 1.98-.58 2.98-.7 1-.04 2-.14 2.92-.08l1.4.02 1.4.08c3.68.24 7.27.7 10.8 1.32 1.78.32 3.52.73 5.25 1.15 1.73.45 3.43 1 5.08 1.72 1.67.65 3.3 1.38 4.98 2 1.68.6 3.4 1.06 5.12 1.5 3.45.8 7 1.28 10.47 2.02 3.5.65 6.87 1.67 10.25 2.74l10.14 3.12 5.07 1.52 5.1 1.42 10.24 2.75c6.83 1.84 13.68 3.53 20.52 5.25.86.22 1.7.52 2.53.8.84.28 1.68.6 2.53.82 1.7.48 3.45.75 5.2 1.06 1.73.25 3.48.5 5.23.72 1.75.3 3.5.58 5.2.95 1.74.34 3.45.76 5.17 1.12 1.7.4 3.43.8 5.18 1.1.87.16 1.73.35 2.6.5l2.6.38 2.63.4 1.26.2 1.32.14 10.56 1.08.6.05.66.03 1.33.06 2.66.12 5.3.24 5.3.23c1.7.06 3.52.08 5.27.1l10.6.07c7.05.04 14.12-.04 21.17-.72l5.3-.47c1.75-.14 3.5-.23 5.28-.35l10.6-.46 21.25-.62 5.32-.18 2.66-.08 2.67-.14c3.55-.15 7.1-.55 10.67-.66 3.58-.17 7.16.05 10.74.48.9.05 1.8.17 2.7.26.9.1 1.8.12 2.7.26.92.13 1.83.23 2.74.38l2.74.53c4.1.9 7.08 2.74 10.25 4.8 1.56 1.07 3.07 2.23 4.46 3.66.27.3.53.58.8.9z"/><path fill="#E0E3ED" d="M871.8 539.12c-.77.04-1.53.05-2.3.06-.75.03-1.5 0-2.27-.04-.76-.04-1.52-.1-2.27.03-.74.18-1.48.53-2.24.43-.76-.04-1.53-.28-2.3-.36-.75-.05-1.5.1-2.26.18-1.5.25-3 .63-4.5.92-.75.16-1.5.27-2.26.34-.75.1-1.5.06-2.27-.08-.77-.1-1.53-.3-2.3-.26-.74-.02-1.5.2-2.25.38-.75.2-1.5.3-2.27.22-.37-.03-.75-.03-1.13-.06l-1.14-.15c-1.53-.24-3.05-.44-4.57-.5-.76-.07-1.52-.02-2.28-.02-.76-.03-1.52.14-2.3.3-.76.17-1.53.23-2.28 0-.76-.27-1.5-.73-2.28-.63-.4.07-.8.27-1.18.32-.38.02-.77-.07-1.16-.1-.8-.07-1.52-.15-2.36-.3l-2.22-.4-2.3-.5-4.55-.92c-.75-.2-1.47-.5-2.15-.95-.34-.22-.68-.42-1.02-.62-.35-.16-.7-.32-1.08-.42-.36-.12-.76-.13-1.16-.13-.4-.04-.8 0-1.2-.1-.74-.18-1.43-.55-2.1-.96-.67-.42-1.32-.88-1.98-1.3-.66-.44-1.34-.75-2.07-1.1-.2-.1-.33-.25-.4-.42l-.03-.1h-.02l-.06-.34c-.02.2.1.45.23.58l-.23-.42-.1-.32-.05-.25c0 .06 0 .14.03.2l-.05-.3v.13l-.03-.1c-.2-1-.1-2.07.3-2.98.36-.93 1-1.67 1.66-2.3 1.33-1.26 2.9-2.04 4.45-2.7.4-.15.8-.3 1.2-.42.4-.1.82-.2 1.22-.32s.8-.2 1.2-.35c.18-.07.38-.12.57-.2l.28-.13.38-.1c.4-.1.78-.25 1.16-.4l1.36-.28c.23-.06.46-.1.7-.12l.64-.05c.43-.04.85-.05 1.28-.07 1.7 0 3.4 0 5.03.2 1.66.2 3.3.38 4.8 1.12 1.5.77 3.1 1.06 4.75 1.2 1.64.15 3.3.2 4.9.52.8.12 1.52.6 2.27.93.77.28 1.57.4 2.4.5.8.1 1.62.17 2.4.42.78.2 1.48.7 2.2 1.16.7.48 1.46.77 2.27.88.8.13 1.62.2 2.36.56.73.38 1.43.9 2.24.98.83.05 1.73-.18 2.48.15.77.24 1.47.73 2.22 1.06.74.33 1.5.66 2.26.9.77.24 1.6.3 2.4.4.82.1 1.6.28 2.33.67.74.37 1.47.78 2.27.92.78.17 1.63.15 2.45.2 1.63.18 3.2.52 4.75 1l.08.02c1.26.38 1.98 1.72 1.6 2.98-.32 1-1.2 1.64-2.16 1.7zm-.84-.1c-1.57-.36-3.12-.83-4.6-1.46-.75-.35-1.47-.78-2.25-1-.76-.25-1.6-.2-2.45-.22-.84 0-1.62-.18-2.36-.55-.74-.37-1.47-.78-2.26-.93-.8-.18-1.6-.26-2.43-.33-.8-.08-1.67.03-2.45-.18-.8-.1-1.4-.93-2.12-1.4-.7-.43-1.6-.25-2.43-.3-.8-.07-1.5-.57-2.23-1-.7-.45-1.5-.65-2.33-.63-.83 0-1.68.06-2.44-.2-.78-.22-1.5-.6-2.25-.96-.73-.37-1.47-.7-2.27-.85-.8-.12-1.65-.04-2.4-.3-1.55-.46-3.02-1.18-4.53-1.72-1.5-.58-3.1-.9-4.77-.67-1.67.27-3.2-.23-4.74-.44-1.53-.3-3.03-.72-4.5-1-.38-.07-.75-.1-1.1-.2-.2-.05-.4-.1-.56-.16-.15-.03-.3-.07-.45-.14l-.98-.34c-.42-.05-.84-.08-1.24-.07h-.24c.05 0-.16.04.12-.03h-.04l-.28.07c-.2.04-.38.1-.56.16-.37.13-.73.3-1.06.5l-1.94 1.25c-1.27.76-2.38 1.68-3.2 2.52-.42.4-.68.84-.96 1.16-.27.32-.6.63-.7 1.04l-.06-.22c.04.2.06.4.06.6l-.1-.63c.06.23.1.47.1.7l-.08-.53.08.5-.47-.87c.3.3.54.87.52 1.3l-.14-.67.06.18-.87-1.03c.53.36 1.25.65 1.98.73.75.1 1.54.06 2.3.08.75.06 1.48.12 2.1.5.63.42 1.1 1.4 1.78 1.65.35.14.72.18 1.1.18.4-.02.8-.1 1.18-.18.8-.2 1.55-.2 2.25-.02 1.38.44 2.76.96 4.17 1.32.7.13 1.4.3 2.12.4l2.24.32c.64.06 1.4.17 2.1.3.37.05.73.08 1.1.17.36.12.7.4 1.07.55.73.23 1.48-.05 2.23-.23.75-.15 1.5 0 2.23.2.73.24 1.47.44 2.22.48.75.07 1.5.18 2.25.18 1.5.08 3-.02 4.5-.04 1.5-.07 3-.2 4.5-.08l1.13.03c.38-.02.75-.03 1.13-.07.75-.07 1.5-.3 2.24-.5.74-.2 1.5-.32 2.24-.32.76-.02 1.5 0 2.27.03 1.5.08 3.02.24 4.52.26.74-.02 1.5.02 2.25-.14.74-.17 1.48-.5 2.22-.62.74-.2 1.5.02 2.27.1.75 0 1.5-.16 2.24-.3.74-.16 1.48-.3 2.23-.38.76-.1 1.5-.22 2.24-.3l-.48 4.7z"/><path fill="#E0E3ED" d="M797.84 532.13l.05-.02c.07 0 .2-.05.33-.1l-.3.1c-.1 0-.02-.02.13-.06l.36-.1c-.05 0-.1.03-.15.04-.23.05-.46.1-.72.18-.06 0-.13.03-.2.05l.36-.1c.18-.05.22-.06.03 0l-.38.08.7-.2c.07-.02.14-.04.1-.04l-.43.1c-.1.04-.14.05-.02 0l.5-.13c.06 0 .1-.02.06 0l-.28.07-.12.03.33-.1c.03-.02-.02 0-.02-.02h.03l.4-.12.37-.1-.28.07c-.42.1-.17.03.06-.03l.5-.15c.04 0-.16.04-.26.07-.14.03-.05 0 .02-.03l.25-.1c.05 0-.13.04-.36.1l-.88.22c-.17.04-.36.1.2-.07.44-.13-.12.02-.44.1l-.27.06.3-.07c.07-.02.04 0 0 0l-.34.08.12-.03.4-.1c.73-.2-.37.08.27-.1l-.08.02c-.36.08-.3.07-.15.02l.4-.1.1-.04-.3.07c-.1.02-.07.02.03 0l.3-.1-.1.03-.7.17c-.05 0 0 0 0 0 1.25-.4 2.52-.74 3.8-1.05l.82-.2h.04s-.02.02-.46.14c-.06.02-.08.02 0 0l.45-.1.1-.03-.3.1c-.05 0 .06-.02.2-.05.15-.05.32-.1.5-.13l-.27.07-.4.1c-.04.02.1-.02.23-.05.8-.22-.9.25-.16.06l.37-.1c.1-.02.1 0 .06 0-.15.04-.3.1-.47.13-.06.02-.1.03-.04.02l.27-.07-.2.06-.4.1c-.05.03-.06.04.28-.05l.67-.18c-.3.1-.58.17-.88.26l-.4.1c-.08.04-.1.04-.04.03l.6-.14.3-.07-.6.17.82-.2.42-.12-.45.12-.6.17.52-.13.6-.15-.06.02-.34.1c-.12.04-.02.02-.15.06l-.27.07-.35.1c-.08.02-.05.02-.02 0l.4-.1-.1.03c-.6.18-.66.2-.7.2-.03.03.13 0 .13 0l-.15.04.24-.06.43-.1c.02 0-.03 0-.08.03-.16.05-.32.1-.47.13-.05.02-.07.03-.05.03.13-.05.26-.08.38-.1l.2-.06-.26.08c.35-.1.54-.13.54-.13.35 1.27-.4 2.6-1.7 2.93s-2.6-.42-2.94-1.7z"/></g></g></g><path fill="#E0E3ED" d="M1177.15 794.76s-18.38 0-50.54-.03c-8.03 0-16.94.03-26.63-.1-4.85-.04-9.9-.08-15.12-.1-5.24-.03-10.66.1-16.26.17l-35.7.5c-12.56.1-25.77.07-39.56.1-27.57.03-57.44-.2-89.03-.3l-48.6-.1-50.76-.3c-17.24-.12-34.76-.16-52.5-.37L725.7 794l-27.03.03c-18.1 0-36.33-.1-54.64-.2l-27.5-.12-27.57.12c-18.38.07-36.76-.1-55.07-.1-18.32-.02-36.56-.17-54.66.2-18.1.38-36.04.3-53.77.4l-52.5.2c-34.46.02-67.77.58-99.36.2-7.9-.06-15.68-.1-23.36-.17l-11.42-.07c-3.78 0-7.52 0-11.24.02l-43 .1c-27.58.22-52.85-.27-75.26-.34-22.4.1-41.93.16-58 .22l-50.56.28v-4.72l50.55-.1 58.02-.12c22.4-.18 47.68-.67 75.25-.4 13.8.1 28.15.17 43 .26 14.87.12 30.24.1 46.04.16 31.6-.12 64.92.86 99.38.34l52.5-.3c8.85-.04 17.78-.1 26.74-.13 8.97-.07 17.98-.05 27.03.25 9.04.3 18.13.4 27.24.27l13.67-.1 13.72-.2 27.5-.35c9.18-.08 18.37-.3 27.56-.2 9.2.1 18.38.2 27.56.32 9.18.07 18.36 0 27.5 0 9.17-.06 18.3-.1 27.4-.08 9.12.03 18.2-.02 27.25.07l27.03.15 26.75-.35c4.43-.1 8.85-.06 13.26-.1l13.18.14 26.06.35c8.6.14 17.16.3 25.62.26 8.47 0 16.85-.07 25.14.1l24.6.37c8.1.1 16.1.18 24 .26 7.9.1 15.7 0 23.37 0 7.68 0 15.23-.04 22.66-.07l43-.34c13.8-.13 27-.2 39.58-.2l35.7.24c5.6.02 11 .12 16.25.07l15.12-.16c9.7-.17 18.6-.16 26.64-.2l50.55-.2v4.72z"/><g fill="#FFF"><path d="M512.2 227.96h393.66V719.7H512.2z"/><path d="M907.56 721.38c-16.5 0-32.95.06-49.52-.04l-24.8-.06c-8.23 0-16.26.28-24.48.34-8.2.04-16.54-.07-24.86-.2-8.33-.15-16.6-.2-24.78-.12l-24.6.23-24.57.37c-16.37.27-32.82.45-49.3.55-16.5.1-33.12-.5-49.58-.43l-12.35.1-12.33.24c-4.12.08-8.23.15-12.35.16-4.12.03-8.25.06-12.37.02-16.5-.03-33-.33-49.47-.5h-.04c-1.3 0-2.33-1.06-2.32-2.35v-.02l.2-15.36.07-15.37c.1-10.24.03-20.5.02-30.73 0-5.12-.08-10.25-.16-15.37l-.3-15.36c0-5.14-.1-10.26.02-15.38.04-5.12.27-10.24.4-15.37.1-2.56.1-5.12.16-7.68.06-2.56.04-5.12 0-7.68-.1-5.13-.37-10.26-.38-15.38l.08-30.73.26-61.48V443.1l-.02-15.38.06-15.36c.12-10.25.46-20.5.67-30.74.2-10.24.1-20.48-.2-30.73-.15-5.13-.17-10.25-.2-15.37l.14-15.37.54-30.73.15-15.37V258.7l-.24-30.74c-.02-.6.48-1.1 1.1-1.12l12.3-.1 12.3.03 24.6.03c16.42.05 32.82 0 49.22.12l24.6.13 12.3.03 12.3-.13 49.2-.66 49.22-.47c16.4-.05 32.8-.2 49.2-.17 16.4.02 32.8.6 49.22.53l24.6-.15 24.6-.35c1.23-.02 2.25.96 2.27 2.2v.06l.22 15.42.13 15.43c.07 5.16.06 10.3.03 15.44l-.26 15.4c-.25 20.53.38 41.2.27 61.76-.04 10.28-.36 20.5-.62 30.72-.2 10.22-.22 20.5-.1 30.8.13 10.33.12 20.6-.15 30.8-.27 10.18-.28 20.44.06 30.86.3 10.4.23 20.68.05 30.88-.16 10.2-.35 20.38-.43 30.62-.1 10.23-.1 20.48 0 30.83l.15 15.52c0 5.15.05 10.32 0 15.42-.05 10.26-.35 20.32-.35 30.6-.04 5.1.04 10.3.05 15.45l.2 15.57.16 15.57.03 15.46c.02 10.3.05 20.63 0 30.88zm-3.4-3.4l-.06-30.64v-15.3l.1-15.2.14-15.2c0-5.1.05-10.16-.03-15.32-.03-10.25-.42-20.73-.5-30.98-.1-5.15-.06-10.23-.06-15.32l.16-15.2c.1-10.13.04-20.38-.1-30.64-.1-10.26-.34-20.58-.54-30.87-.22-10.28-.3-20.5.14-30.5.46-10 .48-20.22.13-30.54-.32-10.3-.27-20.48 0-30.6.25-10.12.34-20.32.17-30.56-.23-10.27-.53-20.53-.55-30.73l.1-15.28.2-15.28c.1-5.1.16-10.2.2-15.3.06-5.08.03-10.2 0-15.3l-.26-15.33c-.05-5.12-.07-10.22 0-15.32l.1-15.3.17-15.32 2.2 2.2-24.6-.28-24.62-.04c-16.4 0-32.8.8-49.2.9-4.1.06-8.2.07-12.3.06H758.25c-16.4-.05-32.8-.24-49.22-.35-4.1-.02-8.2-.08-12.3-.15-4.1-.06-8.2-.1-12.3-.23-8.2-.2-16.4-.43-24.6-.53l-12.3-.13-12.3.06-24.6.38c-32.8.43-65.62.76-98.42.52l2.4-2.4-.55 30.73-.06 15.36c.03 5.12.08 10.24.2 15.36l.9 30.74c.2 10.24.37 20.5-.24 30.73-.22 5.1-.55 10.23-.65 15.36-.06 5.12-.02 10.24.1 15.36.33 10.25.84 20.5 1.02 30.73.15 10.25-.07 20.5-.13 30.74l-.3 30.72-.12 61.47-.12 30.72c-.05 5.12-.38 10.24-.52 15.37-.05 2.55-.1 5.1-.05 7.67.02 2.56.02 5.12.1 7.68.1 5.12.3 10.25.3 15.37.1 5.12 0 10.24-.04 15.36-.2 10.25-.44 20.5-.55 30.74l-.14 30.73-.08 15.37.03 15.36-1.5-1.5 49.07-.08 49.08.14c16.35-.04 32.54-.64 48.87-.6 16.33 0 32.68.1 49.1.3l24.6.26 24.6.13c8.2.05 16.32-.02 24.4-.16 8.08-.14 16.16-.27 24.34-.24 8.18.04 16.53.3 24.67.27l24.4-.1c16.22-.13 32.56-.08 48.83-.12z"/></g><path fill="#F4F6F8" d="M654.7 586.28c10.5 21.34 41.6 13.87 52.08-2.87 10.35-16.5 5.68-41.5 17.13-56.8 14.06-18.8 36.02.24 48.5 10.03 21.95 17.2 54.76 41.68 82.17 18.88 18.38-15.3 12.03-43.88.52-61.25-10.5-15.83-37.27-29.16-41.06-48.7-1.88-9.7 3.04-15.62 9.14-22.95 10.55-12.7 20.7-21.53 27.57-37.12 10.58-23.95 26.38-69.75-13.56-74-27.24-2.9-44.88 26.7-66.3 37.48-33.58 16.9-51.9-23.76-64.12-47.1-7.15-13.65-15.25-26.17-31.46-29.1-13.5-2.44-21.2 1.18-24 14.55-5.33 25.53 14.05 50.07 5.84 75.05-8.1 24.66-35.8 22.64-57.17 25.7-16.07 2.3-54.93 13.52-47.02 37 11.02 32.73 96.92 3.9 82.43 51.37-2.83 9.28-55.58 103.28-14.57 90.25 10.27-3.26 16.6-14.32 26.65-3.44 6.16 6.67 3.66 21.4 10.86 26.68"/><g><g><g fill="#202E78"><path d="M546.18 540.4l.38.37c.13.12.2.16.34.27.1.1.32.23.5.36.77.52 1.97 1.1 3.28 1.53 1.3.45 2.7.76 3.75.95 1.06.2 1.78.3 1.78.3 1.07.14 1.82 1.1 1.67 2.17-.14 1.06-1.1 1.8-2.17 1.67h-.03s-.78-.1-1.95-.3c-1.17-.23-2.73-.57-4.3-1.08-1.54-.5-3.1-1.23-4.2-1.97-.28-.2-.52-.35-.76-.54-.22-.2-.47-.38-.58-.5-.24-.2-.38-.34-.38-.34-.8-.74-.85-2-.1-2.8s1.97-.84 2.77-.1zM567.92 544.7l1.86-.07c1.1-.06 2.6-.15 4.06-.28 1.48-.13 2.95-.3 4.04-.44 1.1-.13 1.8-.26 1.8-.26 1.02-.18 2 .5 2.18 1.53.18 1.02-.5 2-1.53 2.18h-.02s-.77.14-1.92.3c-1.15.16-2.67.34-4.2.48-1.53.14-3.07.25-4.22.3l-1.9.1c-1.06.03-1.95-.78-2-1.84-.05-1.06.77-1.95 1.83-2h.02zM590.97 540.63l.48-.18 1.23-.5c1-.4 2.35-1 3.66-1.64 1.3-.64 2.6-1.3 3.57-1.85l1.6-.92c.84-.5 1.93-.2 2.42.64.48.82.22 1.87-.57 2.4 0 0-2.6 1.67-5.38 3.05-1.4.7-2.8 1.32-3.9 1.77-1.08.44-1.78.7-1.78.7h-.03c-.96.36-2.02-.13-2.38-1.1-.37-.94.12-2 1.07-2.37zM611.13 528.7l1.47-1.2c.87-.73 2.05-1.67 3.2-2.65l4.6-3.9c.7-.62 1.77-.53 2.37.17.6.7.52 1.78-.2 2.38v.02l-.05.03-4.68 3.82c-1.17.96-2.3 1.94-3.18 2.67l-1.42 1.2c-.7.6-1.74.5-2.33-.18-.6-.7-.5-1.74.2-2.34h.03zM630.82 514.03l.47-.23c.3-.15.76-.36 1.3-.6 1.1-.5 2.57-1.1 4.1-1.56l1.13-.35.57-.16.57-.14 1.88-.46 1.84-.44c1.03-.25 2.08.4 2.33 1.43.25 1.05-.4 2.1-1.44 2.35h-.06l-1.84.4-1.9.42-.48.1c-.17.05-.34.1-.5.13l-1.05.3c-1.38.4-2.73.9-3.73 1.32l-1.2.53-.46.22c-.9.42-2 .03-2.4-.88-.43-.9-.06-1.95.82-2.4h.02zM654.9 508.1l12.03-1c1.14-.1 2.13.74 2.23 1.87.1 1.13-.74 2.13-1.87 2.22l-12.04 1.03c-1.14.1-2.15-.74-2.25-1.88-.1-1.14.76-2.15 1.9-2.25zM678.95 506.23l1.85-.2c1.1-.1 2.58-.28 4.06-.48 2.94-.4 5.87-.9 5.87-.9 1.08-.2 2.1.53 2.3 1.6.2 1.08-.53 2.1-1.6 2.3h-.03s-3 .55-6.02.98c-1.5.2-3.02.4-4.16.53l-1.9.2c-1.1.12-2.1-.68-2.22-1.8-.12-1.1.7-2.1 1.8-2.23h.05zM702.35 502.3l11.67-3.08c1-.26 2 .33 2.26 1.32.26.98-.32 1.98-1.3 2.25l-11.64 3.2c-1.03.3-2.08-.3-2.37-1.33-.28-1.03.32-2.1 1.34-2.37h.05zM725.33 495.63l5.68-2.04 2.1-.76 1.78-.66 1.76-.66c.9-.34 1.9.1 2.25 1 .33.9-.12 1.9-1 2.25l-1.77.68c-.54.2-1.16.43-1.83.7-.67.23-1.37.5-2.08.75l-5.67 2.08c-.92.34-1.94-.13-2.3-1.05s.15-1.95 1.07-2.3zM747.92 487.26l11.26-4.36h.02c.9-.35 1.9.1 2.24.98.34.9-.1 1.9-1 2.24l-5.65 2.13c-2.84 1.05-5.64 2.18-5.64 2.18-.87.35-1.86-.08-2.2-.95s.06-1.86.93-2.2l.02-.02zM770.3 478.4l11.08-4.77.03-.02c.95-.4 2.04.04 2.44.98s-.03 2.03-.97 2.44l-11.16 4.66h-.02c-.9.4-1.95-.04-2.33-.95-.37-.9.05-1.94.94-2.33zM792.54 468.7s.18-.05.5-.17l1.33-.46c1.1-.37 2.6-.83 4.1-1.2 3.04-.8 6.1-1.27 6.1-1.27h.04c1.07-.17 2.05.55 2.22 1.6.16 1.06-.56 2.04-1.6 2.2 0 0-2.92.48-5.75 1.24-1.4.38-2.82.76-3.87 1.1-1.02.33-1.74.6-1.74.6-1 .36-2.12-.16-2.48-1.17s.16-2.1 1.16-2.46zM816.87 464.5l12.07-.12h.07c1.08 0 1.95.85 1.96 1.92 0 1.06-.85 1.93-1.92 1.94h-6.05c-1.52 0-3.03-.02-4.16 0l-1.88.03h-.04c-1.05.02-1.9-.82-1.92-1.86-.02-1.04.82-1.9 1.86-1.9zM840.95 464.25l1.86-.1c1.13-.06 2.6-.17 4.1-.3 2.95-.28 5.87-.75 5.87-.75h.03c1.1-.18 2.14.58 2.32 1.68.18 1.1-.58 2.15-1.68 2.32 0 0-3.08.48-6.15.74-1.54.14-3.07.24-4.22.3l-1.92.08h-.02c-1.1.05-2.02-.8-2.07-1.9-.05-1.1.8-2 1.88-2.07zM864.12 460.27l.5-.2c.3-.1.7-.26 1.2-.48 1-.43 2.3-1.05 3.5-1.78 1.22-.73 2.34-1.57 3.1-2.27.76-.7 1.2-1.22 1.2-1.22.68-.82 1.9-.93 2.72-.25.8.68.93 1.88.27 2.7l-.04.05s-.55.7-1.48 1.57c-.93.9-2.26 1.94-3.67 2.8-1.4.9-2.85 1.62-3.95 2.1-.54.26-1.06.48-1.34.6-.3.1-.48.18-.48.18-1.04.43-2.24-.08-2.66-1.13-.43-1.05.08-2.24 1.13-2.67h.02zM876.38 444.3l-.34-1.76c-.08-.25-.15-.6-.24-.84-.08-.25-.18-.53-.3-.82-.25-.57-.55-1.16-.93-1.7-.37-.54-.8-1.04-1.26-1.44-.44-.42-.92-.76-1.34-1.03-.43-.25-.8-.44-1.07-.57l-.44-.2-.07-.03c-.87-.4-1.25-1.43-.85-2.3.4-.86 1.42-1.23 2.3-.83l.54.25c.33.17.82.43 1.4.78 1.1.7 2.54 1.9 3.6 3.38.54.74.98 1.54 1.33 2.3.16.4.32.77.45 1.17.15.42.2.64.3.93v.05l.05.2.02.1.04.2.07.36.13.57.1.5c.22.98-.4 1.94-1.37 2.15s-1.93-.4-2.14-1.37l-.02-.03v-.02zM859.22 434.6s-.76.04-1.84.15c-1.1.1-2.57.3-4.04.54-1.46.23-2.92.5-4.02.74l-1.83.39h-.02c-.98.2-1.94-.42-2.15-1.4-.2-.98.42-1.94 1.4-2.15 0 0 2.97-.66 6.04-1.13 1.53-.23 3.08-.42 4.25-.53l1.42-.1.52-.04h.04c.97-.07 1.8.67 1.87 1.64.06.97-.67 1.8-1.64 1.87zM835.8 439.28l-11.72 2.88c-.96.23-1.92-.35-2.16-1.3-.23-.97.35-1.93 1.3-2.16l11.73-2.9c.96-.25 1.94.34 2.18 1.3.24.97-.35 1.94-1.32 2.18zM812 444.15l-1.9.17c-1.15.1-2.7.18-4.24.18s-3.1-.08-4.27-.2c-1.18-.14-1.95-.28-1.95-.28h-.04c-.9-.18-1.5-1.06-1.33-1.96.17-.9 1.04-1.5 1.94-1.34 0 0 .7.12 1.73.22 1.05.1 2.47.18 3.9.16 1.45 0 2.9-.1 4-.2l1.82-.18h.03c.95-.1 1.8.6 1.9 1.54.08.95-.6 1.8-1.56 1.9H812zM789.1 437.1l-.22-.46-.6-1.3c-.45-1.06-1-2.52-1.45-4-.92-2.95-1.5-5.95-1.5-5.95l-.02-.06c-.17-.95.44-1.86 1.4-2.05.93-.2 1.84.42 2.03 1.37v.02s.53 2.9 1.34 5.66c.4 1.38.87 2.72 1.28 3.7.2.5.35.84.5 1.15l.22.48c.4.84.03 1.8-.8 2.2-.8.38-1.77.03-2.16-.77zM783.2 413.48l-.36-1.84c-.22-1.1-.52-2.55-.88-4s-.75-2.85-1.1-3.9c-.34-1.04-.6-1.73-.6-1.73-.36-.92.1-1.98 1.05-2.34.94-.35 1.98.1 2.35 1.03v.02s1.2 3 1.9 6.05c.37 1.52.67 3.05.88 4.18l.34 1.9c.17.98-.48 1.92-1.47 2.1-.98.17-1.92-.48-2.1-1.45v-.02zM775.77 390.84l-4.52-11.2c-.33-.83.07-1.78.9-2.12.83-.33 1.77.06 2.12.88l4.7 11.14c.36.87-.05 1.88-.92 2.25-.88.37-1.9-.05-2.26-.92-.02 0-.02 0-.02-.02v-.02zM766.7 368.47l-4.6-11.16c-.3-.74.04-1.6.8-1.9.74-.32 1.6.03 1.9.77h.02l4.74 11.1c.34.8-.03 1.7-.8 2.05-.8.33-1.7-.03-2.04-.82l-.02-.03zM757.33 346.28l-.8-1.7c-.5-1-1.2-2.32-1.92-3.63-1.42-2.63-3.03-5.13-3.03-5.13l-.02-.03c-.45-.72-.24-1.66.46-2.1.72-.46 1.66-.26 2.1.45l.05.07.95 1.68c.58 1 1.33 2.34 2.03 3.7.7 1.36 1.38 2.74 1.88 3.77l.85 1.7c.35.7.06 1.54-.63 1.88-.7.34-1.53.06-1.87-.64l-.02-.02zM744.34 326.52s-.54-.55-1.32-1.28c-.8-.75-1.9-1.7-3.06-2.55-1.17-.86-2.37-1.64-3.3-2.15-.94-.52-1.6-.8-1.6-.8-.93-.43-1.35-1.54-.93-2.48.42-.94 1.53-1.36 2.47-.94l.06.03s.75.33 1.82.93c1.07.57 2.46 1.44 3.72 2.45 1.28 1 2.46 2.06 3.3 2.9.43.4.8.8 1.02 1.04l.36.36v.02c.68.7.65 1.83-.06 2.5-.7.67-1.8.64-2.48-.06zM724.04 317.6l-.52.02c-.35.02-.74.04-1.28.1-1.06.1-2.47.33-3.86.68-2.8.68-5.43 1.9-5.43 1.9-.92.44-2.02.04-2.46-.88s-.04-2.03.9-2.46l.05-.03s2.9-1.35 6.04-2.13c1.56-.4 3.16-.66 4.38-.78.6-.06 1.18-.1 1.48-.1l.52-.04c1.02-.05 1.9.74 1.95 1.77.05 1.03-.75 1.9-1.77 1.95h-.02zM702.8 326.28l-9.84 6.98c-.83.58-1.97.38-2.55-.44-.57-.83-.38-1.97.45-2.55l.05-.04 9.84-7c.83-.58 1.98-.38 2.57.44s.4 1.98-.42 2.57l-.07.04zM682.08 339.36l-1.77.66-.85.3-.23.1-.12.04-.24.08-.5.14-2.13.62-5.8 1.67c-.95.28-1.95-.27-2.23-1.23-.27-.95.28-1.95 1.23-2.23h.02l5.8-1.68c.72-.2 1.44-.42 2.12-.62l.5-.14.06-.02c-.04 0 .14-.05-.1.04l.04-.02.1-.04.24-.1.87-.3 1.77-.67c.94-.35 1.98.13 2.33 1.07s-.13 1.98-1.07 2.33h-.02zM658.37 345.55l-5.97.82-2.2.3-1 .15-.13.02h-.05l-.2.02-.22.02c-.16 0-.3.02-.44.03l-1.88.13h-.02c-1 .07-1.88-.7-1.95-1.7s.7-1.88 1.72-1.95h.02l1.88-.1.44-.02.24-.02H648.53h.16l1.03-.14c.7-.1 1.45-.18 2.2-.28 3-.38 5.97-.82 5.97-.82.98-.14 1.88.54 2.03 1.5.14 1-.54 1.9-1.5 2.04h-.06zM634 346.7s-.75 0-1.87-.05c-1.12-.04-2.6-.07-4.07-.06-1.47 0-2.93.05-4.02.13-1.08.08-1.8.17-1.8.17-1.1.13-2.08-.65-2.2-1.74-.13-1.1.64-2.08 1.74-2.2v-.02h.03s.8-.08 1.97-.15c1.18-.08 2.73-.12 4.28-.1 1.54 0 3.08.06 4.22.1l1.9.1c1.05.05 1.86.95 1.8 2-.04 1.04-.92 1.85-1.96 1.82zM611.88 350.33l-.38.27c-.23.18-.56.43-.93.75-.37.33-.78.73-1.18 1.2-.12.12-.23.25-.34.4l-.3.36-.64.84c-1.66 2.24-2.82 4.87-2.82 4.87-.46 1.04-1.66 1.5-2.7 1.06-1.02-.46-1.5-1.65-1.05-2.68l.02-.05s1.28-2.95 3.2-5.6l.74-.96c.15-.16.28-.32.4-.48l.37-.44c.53-.6 1.06-1.14 1.54-1.57.5-.44.9-.77 1.2-1l.47-.33c.92-.67 2.2-.47 2.9.46.66.92.45 2.2-.47 2.9h-.02zM601.95 370.08l-.32 1.83c-.2 1.1-.4 2.56-.57 4.03-.36 2.95-.58 5.94-.58 5.94-.08 1.1-1.04 1.92-2.13 1.84s-1.92-1.02-1.84-2.12c0 0 .22-3.04.57-6.1.18-1.53.4-3.06.58-4.2l.33-1.9c.18-1.1 1.23-1.84 2.32-1.65 1.1.2 1.84 1.23 1.65 2.33v.02zM599.73 393.85l-.36 12.06v.02c-.04 1.12-.97 2-2.1 1.97s-2-.98-1.97-2.1v-.02l.48-12.06c.04-1.1.96-1.95 2.05-1.9 1.1.04 1.93.94 1.9 2.03zM599.38 417.86l.47 12.06c.05 1.2-.87 2.18-2.05 2.23-1.18.05-2.17-.87-2.22-2.05v-.02L595.2 418c-.03-1.15.87-2.1 2.03-2.15 1.14-.03 2.1.86 2.15 2zM600.86 441.8l.23 1.88.22 1.9c.05.35.1.7.13 1.05.05.3.1.6.2.97.3 1.4.7 2.87.98 3.96l.5 1.8v.02c.3 1.18-.4 2.4-1.57 2.7s-2.4-.37-2.72-1.55v-.02s-.2-.72-.48-1.83c-.28-1.1-.66-2.57-1-4.13-.08-.37-.18-.8-.25-1.28-.03-.4-.08-.77-.12-1.15l-.22-1.9-.22-1.88c-.14-1.2.72-2.28 1.9-2.42 1.2-.13 2.28.72 2.42 1.9zM606.25 465l3.16 11.66c.3 1.08-.33 2.2-1.42 2.5-1.06.28-2.17-.35-2.48-1.4l-3.37-11.6c-.33-1.13.32-2.32 1.45-2.65 1.14-.32 2.33.33 2.66 1.47v.04zM612.52 488.35s.2.73.47 1.83c.27 1.1.63 2.57.98 4.1.1.4.17.73.24 1.3 0 .1.02.1 0 .3v.25c0-.02-.03.2-.07.3-.04.12-.1.25-.18.37-.13.22-.42.46-.5.5l-.24.15c-.15.1-.3.2-.46.28-.6.37-1.16.72-1.64 1l-1.6 1c-.88.54-2.03.27-2.57-.6-.53-.88-.26-2.02.6-2.56l1.62-1 1.65-1 .46-.28.22-.15-.1.07-.2.15c-.14.12-.26.26-.36.4-.1.16-.18.33-.23.5l-.07.24v.12c-.03.06-.03.12-.03.18v.1c0-.1-.1-.52-.17-.84-.3-1.4-.7-2.85-1-3.92l-.5-1.8c-.3-1.02.3-2.07 1.3-2.35 1.02-.3 2.07.3 2.35 1.3l.02.05zM598.55 505.3l-11.08 4.76c-.95.4-2.06-.03-2.47-.98-.4-.95.03-2.05.98-2.46l11.1-4.76c.95-.4 2.04.03 2.45.98.4.95-.03 2.04-.98 2.45zM576.13 514.47l-1.77.65c-1.06.4-2.48.92-3.9 1.42-2.85 1-5.7 2.03-5.7 2.03-1 .36-2.1-.15-2.44-1.14-.36-1 .16-2.08 1.15-2.43l5.7-2.02c1.42-.5 2.84-1 3.9-1.4 1.06-.4 1.77-.65 1.77-.65.98-.36 2.06.15 2.42 1.12.35.98-.15 2.06-1.12 2.42zM554.3 523.6l-.43.3c-.24.16-.6.4-1.02.73-.85.64-1.92 1.55-2.86 2.56-.48.5-.92 1.02-1.3 1.54-.42.54-.8 1.04-1.1 1.5-.6.87-.93 1.47-.93 1.47-.53.94-1.72 1.27-2.65.74-.94-.53-1.26-1.72-.73-2.65v-.02l.02-.06s.4-.7 1.1-1.7c.33-.5.74-1.06 1.2-1.65.46-.6 1-1.25 1.56-1.84 1.13-1.2 2.38-2.26 3.35-2.98.48-.37.9-.66 1.2-.87.28-.18.43-.3.43-.3.9-.58 2.08-.34 2.67.54.6.88.36 2.08-.52 2.67z"/></g><g fill="#7084CB"><path d="M798.14 424.65c1.62 10.03 4.36 15.4-5.93 18.2-11.93 3.26-20.63 10.33-31.33 15.68-11.48 5.77-24.02 9.58-36.24 13.13-16.5 4.8-33.24 7.87-49.83 11.9-4.78 1.15-9.55 2.4-14.3 3.77-9.1 2.66-17.7 7.06-26.74 9.94-8.5 2.7-16.32.93-24.9 2.7-5.62 1.2-9.25 3-11.62-3.9-2.06-6.1-9.2-12.42-6.46-18.13.66-1.4 1.57-2.6 2.66-3.64 5.75-5.4 24.16-9.48 31.14-12.04 23.54-8.65 46.58-19.04 70.54-26.35 1.27-.4 2.56-.78 3.84-1.15 16.12-4.66 32.38-8.74 48.8-11.95 7.4-1.47 14.72-2.3 21.56-5.2 5.96-2.48 11.53-5.43 18-6.2 9.16-1.13 9.54 5.2 10.82 13.25z"/><path d="M798.53 424.58s.3 1.84.96 5.3c.14.86.32 1.83.45 2.9.13 1.1.24 2.3.1 3.63-.16 1.32-.7 2.78-1.83 3.87-1.1 1.1-2.57 1.83-4.14 2.4-1.58.54-3.25.92-4.94 1.54-1.7.57-3.45 1.3-5.24 2.07-1.8.82-3.62 1.73-5.5 2.74-1.85 1.03-3.75 2.15-5.7 3.32-3.92 2.33-8.07 4.9-12.7 7.16-4.6 2.28-9.6 4.32-14.9 6.23-5.3 1.92-10.9 3.63-16.7 5.34-5.82 1.72-11.87 3.36-18.14 4.85-12.5 3.03-25.83 5.64-39.44 9.02-3.4.85-6.82 1.76-10.24 2.74-3.42 1-6.77 2.2-10.14 3.53l-10.12 4.02c-1.7.66-3.43 1.28-5.18 1.87-1.74.6-3.52 1.08-5.36 1.4-3.66.66-7.4.7-11.1.8-3.7.1-7.4.3-11.02 1.18-1.8.38-3.64.95-5.6.82-.95-.08-1.92-.46-2.65-1.1-.73-.66-1.25-1.5-1.67-2.34-.43-.86-.7-1.77-1.05-2.62-.35-.85-.77-1.68-1.23-2.5-.9-1.6-1.93-3.17-2.9-4.8-.94-1.6-1.85-3.3-2.34-5.15-.22-.93-.35-1.9-.23-2.87.1-.96.47-1.9.93-2.73.9-1.68 2.24-3.1 3.8-4.2 1.54-1.08 3.23-1.92 4.93-2.7 6.87-3 14.1-4.84 21.13-7.04 1.76-.54 3.48-1.12 5.2-1.8l5.12-1.96c3.4-1.3 6.8-2.63 10.15-3.95l19.87-7.9c13.06-5.12 25.8-9.85 38.2-13.4 12.38-3.52 24.18-6.56 35.14-9.03 5.48-1.23 10.75-2.34 15.8-3.26 5.03-.9 9.82-1.66 14.18-2.95 4.36-1.25 8.15-3.24 11.82-4.73 3.64-1.54 7.15-2.68 10.44-3.14 1.63-.24 3.25-.33 4.74-.02 1.5.3 2.84 1.05 3.7 2.08.9 1.02 1.4 2.17 1.76 3.2.35 1.05.57 2.02.75 2.9.35 1.73.54 3.06.68 3.95l.23 1.35zm-.78.13l-.2-1.35c-.16-.9-.34-2.23-.68-3.93-.18-.85-.4-1.8-.72-2.8-.35-.97-.8-2.04-1.6-2.94-.77-.9-1.9-1.56-3.28-1.83-1.37-.28-2.88-.2-4.48.03-3.2.44-6.65 1.55-10.27 3.08-3.64 1.47-7.46 3.48-11.9 4.76-4.4 1.33-9.22 2.14-14.24 3.08-5.02.98-10.3 2.03-15.77 3.25-10.96 2.43-22.74 5.42-35.1 8.98-12.33 3.6-25.13 8.1-38.17 13.3l-19.86 7.9c-6.74 2.64-13.48 5.43-20.56 7.63-3.54 1.04-7.1 2.03-10.63 3.18-3.5 1.12-7.03 2.33-10.4 3.85-1.68.76-3.34 1.6-4.82 2.65-1.48 1.04-2.72 2.4-3.57 4-.9 1.55-1.07 3.33-.58 5.07.45 1.73 1.36 3.35 2.28 4.95.94 1.6 1.96 3.18 2.88 4.84.46.84.88 1.68 1.25 2.58.36.9.62 1.77 1 2.58.4.8.9 1.57 1.52 2.13.63.56 1.43.88 2.3.94 1.73.13 3.55-.42 5.36-.82 3.67-.9 7.46-1.14 11.17-1.24 3.7-.1 7.4-.14 11-.8.9-.13 1.75-.34 2.64-.56l1.33-.38 1.3-.42c1.72-.58 3.44-1.2 5.14-1.85 3.4-1.3 6.74-2.74 10.1-4.08 3.36-1.34 6.74-2.65 10.18-3.62 3.44-.98 6.86-1.88 10.28-2.72 6.83-1.64 13.56-3.2 20.16-4.64 6.6-1.43 13.05-2.8 19.3-4.3 6.27-1.46 12.3-3.15 18.1-4.88 5.78-1.73 11.36-3.47 16.64-5.38 5.26-1.9 10.24-3.96 14.8-6.22 4.6-2.2 8.76-4.72 12.7-7.02 3.94-2.3 7.67-4.4 11.27-6.08 1.82-.8 3.57-1.56 5.3-2.13 1.72-.6 3.42-1 4.93-1.54 1.5-.55 2.88-1.24 3.85-2.22 1-.97 1.46-2.22 1.6-3.43.14-1.2.03-2.36-.1-3.4-.12-1.07-.3-2.03-.46-2.9-.66-3.43-.97-5.3-.97-5.3z"/></g><g fill="#5D73C4"><path d="M798.17 424.64c1.66 10.02 4.35 15.4-5.48 18.07-11.42 3.13-19.67 10.08-29.87 15.3-10.95 5.62-22.92 9.27-34.6 12.67-15.76 4.6-31.76 7.47-47.62 11.32-.55-2.86-.48-5.9.36-9.04 2.54-9.44 9.63-10.6 14.84-16.35 5.4-5.97 4.48-14.03 3.75-21.9 1.22-.4 2.44-.75 3.67-1.1 15.4-4.48 30.93-8.36 46.64-11.38 7.08-1.38 14.08-2.13 20.6-4.93 5.7-2.42 11-5.3 17.2-6 8.75-1.02 9.2 5.3 10.5 13.34z"/><path d="M798.55 424.57c.47 2.92 1.17 5.76 1.52 8.74.15 1.5.22 3.05-.26 4.56-.45 1.5-1.6 2.75-2.9 3.54-1.3.83-2.77 1.25-4.18 1.68l-2.12.63-2.06.75c-2.73 1.05-5.36 2.35-7.93 3.77-5.13 2.85-10.04 6.13-15.24 8.98-5.2 2.83-10.66 5.17-16.2 7.22-5.55 2.05-11.2 3.82-16.86 5.48-5.66 1.67-11.36 3.22-17.1 4.57-5.75 1.37-11.52 2.58-17.28 3.87-5.76 1.26-11.52 2.5-17.26 3.87l-.23.07-.05-.24c-.44-2.26-.45-4.6-.1-6.87.16-1.13.43-2.28.8-3.35.33-1.07.8-2.16 1.37-3.16.25-.52.6-.98.92-1.47.35-.45.7-.92 1.08-1.35.77-.85 1.6-1.65 2.5-2.37 1.78-1.45 3.7-2.68 5.5-4.07.87-.7 1.74-1.43 2.53-2.24.4-.4.78-.8 1.13-1.25.4-.44.7-.9 1-1.36.34-.45.57-.97.85-1.46.24-.5.46-1.02.66-1.55.37-1.06.68-2.14.84-3.26.2-1.1.28-2.23.34-3.36.02-1.1.04-2.24-.02-3.38-.1-2.26-.3-4.52-.53-6.8l-.02-.24.25-.08c2.22-.7 4.44-1.36 6.66-2l6.7-1.87c4.47-1.23 8.95-2.4 13.44-3.52 4.5-1.12 9-2.15 13.54-3.1 4.54-.95 9.08-1.87 13.64-2.7 4.55-.8 9.12-1.56 13.5-2.98 2.18-.7 4.3-1.62 6.4-2.55 2.12-.94 4.25-1.86 6.43-2.7 2.18-.8 4.43-1.47 6.74-1.84.56-.08 1.17-.18 1.75-.2l.86-.06c.3 0 .6 0 .9.02.62-.02 1.2.13 1.8.23.58.2 1.17.35 1.7.68 1.06.6 1.9 1.55 2.5 2.6.58 1.06.96 2.2 1.27 3.32.58 2.28.9 4.58 1.28 6.85zm-.77.14c-.38-2.28-.7-4.57-1.25-6.78-.3-1.1-.66-2.17-1.2-3.15-.53-.96-1.28-1.78-2.22-2.3-.44-.3-.97-.44-1.48-.6-.55-.1-1.08-.24-1.63-.23-.3 0-.56-.03-.84-.02l-.86.06c-.6.02-1.1.1-1.7.2-2.24.35-4.44 1-6.6 1.8-2.14.8-4.24 1.77-6.34 2.73-2.1.96-4.23 1.94-6.47 2.66-4.48 1.44-9.1 2.17-13.64 2.96-4.55.78-9.08 1.7-13.6 2.67-4.53.96-9.03 2-13.53 3.06-4.5 1.07-8.98 2.22-13.44 3.47l-6.7 1.88c-2.2.65-4.42 1.32-6.62 2l.3-.43c.2 2.26.43 4.54.53 6.83.06 1.14.07 2.3 0 3.45-.07 1.15-.18 2.3-.4 3.44-.2 1.13-.54 2.25-.94 3.34-.44 1.08-.94 2.13-1.58 3.1-.32.5-.65 1-1.02 1.42-.2.23-.34.43-.56.68l-.6.62c-.8.84-1.68 1.6-2.58 2.3-1.8 1.44-3.7 2.68-5.43 4.12-.88.7-1.68 1.5-2.4 2.32-.37.42-.7.86-1.03 1.3-.3.47-.63.9-.88 1.4-.56.98-1 1.94-1.35 3.03l-.26.8-.07.2-.03.1-.02.1-.1.4c-.13.54-.25 1.1-.34 1.64-.36 2.2-.33 4.45.1 6.63l-.54-.34c5.74-1.4 11.5-2.68 17.27-3.92 2.88-.63 5.77-1.22 8.63-1.92l8.6-2.05c2.87-.66 5.73-1.36 8.58-2.1 2.85-.74 5.68-1.57 8.5-2.4 2.82-.86 5.66-1.68 8.46-2.57 2.8-.88 5.6-1.8 8.38-2.82 5.5-2.06 10.92-4.42 16.07-7.26 5.14-2.84 10-6.2 15.23-9 2.6-1.4 5.3-2.67 8.07-3.7l2.1-.73 2.13-.67c1.4-.45 2.8-.87 3.98-1.65 1.22-.75 2.2-1.82 2.6-3.15.42-1.33.37-2.8.2-4.23-.33-2.9-1.05-5.8-1.52-8.7z"/></g></g></g><g fill="#5D73C4"><path d="M540.1 626.34h337.87v64.38H540.1z"/><path d="M877.96 693.12c-7.03-.08-14.07-.07-21.1-.22-3.53-.08-7.05-.13-10.57-.16-3.53-.12-7.05.1-10.57.26-3.52.13-7.04.03-10.56-.12-3.5-.16-7.03-.35-10.55-.35-7.04.05-14.08.18-21.12.43-7.04.2-14.08.48-21.12.56l-5.27.1-5.27-.05c-3.52-.1-7.04-.24-10.56-.37-3.52-.08-7.04-.15-10.56-.06-3.5.06-7.03.26-10.55.38-3.52.1-7.04.1-10.56.04-3.52-.02-7.04-.12-10.56-.22-7.04-.16-14.08-.42-21.12-.5-7.04-.1-14.08-.1-21.12.04-3.5.1-7.03.33-10.55.4-3.52.06-7.04 0-10.56-.28-1.77-.1-3.53-.26-5.3-.3-1.75-.07-3.5-.07-5.27.04-1.76.1-3.52.3-5.28.3-1.76.06-3.52 0-5.28 0l-21.1-.14c-7.05-.05-14.1-.2-21.13-.18h-10.56c-3.52.02-7.04.05-10.56 0-7.04-.06-14.08-.85-21.1-.8h-1.18l-.03-1.2c0-1.34 0-2.68-.06-4.02l-.2-4.03c-.07-1.34-.2-2.68-.2-4.02 0-1.34-.06-2.7-.03-4.03.08-2.68.1-5.36.2-8.04l.32-8.05c.13-2.68.2-5.37.24-8.05.02-1.34.08-2.68.06-4.02v-4.03c.02-2.68-.07-5.36-.1-8.05l-.14-8.04v-1.1l1.12-.02 5.28-.1 5.28.02 10.56.03 21.12.08c7.04.1 14.07.3 21.1.18l5.3-.1 5.27-.18 10.57-.35 21.1-.5c7.05-.14 14.1-.16 21.13-.25 7.04-.16 14.08.12 21.12.37 1.76.07 3.52.1 5.28.1 1.76.02 3.5.08 5.27.04 3.52-.06 7.04-.1 10.56-.18l10.56-.33c3.5-.12 7.03-.24 10.55-.3l5.28-.1c1.76 0 3.52 0 5.28.06 3.53.14 7.05.3 10.56.32 7.04 0 14.08-.4 21.12-.37h2.64l2.64.05 2.64.08 2.64.15 5.28.3 5.28.2c7.04.1 14.08-.43 21.1-.07l5.3.24c.87.03 1.75.03 2.63.04.88.02 1.76.02 2.64 0 3.52-.04 7.04-.5 10.56-.52 3.52-.07 7.04.05 10.56.18 3.5.12 7.03.28 10.55.34 3.52.1 7.04.1 10.56.1l10.56-.27 1.8-.05.07 1.9c.05 1.35.06 2.7.08 4.04.03 1.34.04 2.68 0 4.02-.03 1.34-.02 2.68-.08 4.02l-.14 4.03c-.03 1.34-.1 2.68-.1 4.02l-.05 4.03.08 4.02c.02 1.34.1 2.68.14 4.02l.3 8.05c.05 1.34.14 2.68.14 4.03l.05 4.02.1 8.05c.06 2.68.03 5.36.03 8.05v2.42l-2.4-.02zm-2.4-4.77c-.02-1.9-.04-3.8-.02-5.68l.05-8.05v-4.02c0-1.34.08-2.7.1-4.03l.24-8.05c.04-1.34.1-2.68.1-4.02l.02-4.02-.1-4.03c-.02-1.34-.1-2.68-.17-4.02l-.22-4.02c-.1-1.34-.08-2.68-.13-4.02-.05-1.34-.05-2.68-.03-4.02 0-1.34 0-2.7.07-4.03l2.47 2.48c-3.52-.1-7.04-.24-10.56-.27-3.5.04-7.03.05-10.55.2-3.52.07-7.04.27-10.56.4-1.77.1-3.53.17-5.3.22-1.75 0-3.5.07-5.27 0-3.5-.08-7.03-.65-10.55-.75-.88-.04-1.76-.04-2.64-.02-.88.02-1.76 0-2.64.05l-5.28.3c-3.52.14-7.04.1-10.56-.1l-5.28-.26c-1.76-.08-3.52-.08-5.28-.12l-5.28.13-5.28.27-2.64.14-2.64.05-2.64.05-2.64-.04c-7.04-.04-14.07-.5-21.1-.54-3.53 0-7.05.13-10.57.26-1.75.05-3.5.06-5.27.06l-5.28-.07c-3.52-.04-7.04-.13-10.56-.23l-10.56-.26c-3.52-.06-7.04-.05-10.56-.08-1.76-.02-3.52.07-5.28.1l-2.64.06-2.64.13c-3.52.16-7.04.4-10.56.53l-5.28.14H656.25c-3.52 0-7.04.02-10.56-.07-7.05-.14-14.1-.2-21.13-.4-7.04-.16-14.08-.84-21.1-.88-3.53-.05-7.05-.03-10.57.1-3.52.14-7.04.3-10.56.4-7.04.15-14.08.32-21.12.42l-10.55.07-5.28.04-5.3-.1 2.4-2.4c-.04 2.67-.2 5.36-.3 8.04l-.17 4.02c-.07 1.34-.1 2.7-.1 4.03l-.03 4.02c-.03 1.34.04 2.68.06 4.03.07 2.68.22 5.36.4 8.04l.54 8.05c.1 1.34.13 2.68.2 4.03.05 1.34.04 2.68.07 4.02.02.67 0 1.34 0 2 0 .68-.03 1.35-.08 2.02-.07 1.34-.27 2.7-.4 4.03l-.4 4.02c-.13 1.33-.2 2.67-.22 4.02l-1.97-1.98c1.77.02 3.53-.03 5.3-.12 1.75-.1 3.5-.26 5.27-.4 1.76-.15 3.52-.34 5.28-.42 1.76-.1 3.5-.22 5.27-.23 3.52-.06 7.04.07 10.56.13l10.56.22c3.52.08 7.04.1 10.56.1l10.56.05 21.1.15c1.77.03 3.53 0 5.3.07 1.75.04 3.5.26 5.27.4 1.76.14 3.52.17 5.28.12 1.77 0 3.53-.13 5.3-.22 3.5-.23 7.03-.25 10.55-.16 3.52.1 7.04.34 10.55.46 3.52.16 7.04.12 10.56.18l10.56.12c7.04.1 14.08 0 21.12 0 7.04-.02 14.07-.14 21.1-.02l10.57.06c3.53.04 7.05-.07 10.57-.18 3.52-.15 7.04-.32 10.56-.42l5.28-.08 5.28.04c7.04 0 14.08.2 21.12.34 7.04.17 14.08.25 21.12.24 3.52-.02 7.04-.2 10.55-.38 3.52-.15 7.04-.26 10.56-.16 3.52.13 7.04.32 10.56.2 3.5-.06 7.03-.12 10.55-.22 6.23-.15 12.47-.2 18.7-.27z"/></g><path fill="#202E78" d="M639.93 652.3l.1.66.1.57c.07.4.16.8.25 1.2.2.78.37 1.56.62 2.33.48 1.53 1.12 3 1.9 4.4L641 660c1.46.2 2.9.1 4.46-.62 1.55-.65 3.12-1.74 4.68-2.97 1.6-1.2 3.17-2.56 4.86-3.93 1.7-1.36 3.46-2.8 5.65-3.88 1.1-.57 2.26-1.06 3.56-1.37 1.3-.3 2.72-.42 4.1-.23l.5.06.2.03h.05l.1.02.2.04.77.17.4.1.5.15 1.03.36c.34.12.66.33 1 .5.3.18.63.34.93.62.3.26.62.5.9.8.24.3.5.62.73.95.85 1.37 1.13 2.7 1.35 3.8.22 1.12.37 2.06.6 2.94.22.9.57 1.64.97 2.4.22.35.47.7.72 1.04l.82.9 1.2 1.03 1.06.73 1.2.66c.4.16.82.35 1.25.5 1.7.62 3.56.85 5.46.76 1.9-.1 3.84-.46 5.77-1 1.93-.53 3.84-1.26 5.74-2.05 1.9-.8 3.78-1.7 5.62-2.7 1.84-1 3.68-2 5.46-3.14 1.8-1.12 3.6-2.2 5.4-3.36 1.8-1.14 3.6-2.3 5.54-3.4.67-.4 1.53-.15 1.9.52.05.06.08.13.1.2l.12.3.5 1.33c.15.45.37.85.57 1.25l.3.6c.1.2.25.37.37.55.24.35.47.72.77.98l.4.44c.13.14.3.22.44.34.15.12.3.24.44.33.17.08.33.15.48.24.3.2.66.24.98.38.35.1.72.13 1.1.2.4-.03.76.03 1.18-.02.42-.04.82-.05 1.26-.13.86-.1 1.76-.28 2.66-.52.46-.12.9-.23 1.37-.37.48-.13.94-.23 1.4-.4.95-.26 1.9-.57 2.85-.87l.26-.1c1.18-.35 2.44.3 2.8 1.47l.1.37c.03.33.24.88.52 1.5.28.65.63 1.37.9 2.36l-3.37-1.28c.87-.5 1.76-.86 2.63-1.07.44-.12.87-.2 1.3-.27.42-.07.84-.1 1.26-.14 1.67-.15 3.26-.07 4.8.08 1.56.16 3.08.36 4.56.6l2.14.35c.36.04.73.1 1.1.12l1.02.08c2.8.17 5.7.06 8.67-.04l4.48-.14c1.52-.05 3.04-.07 4.58-.03 1.33.02 2.38 1.12 2.34 2.44s-1.13 2.37-2.45 2.34h-.18c-2.85-.12-5.73-.02-8.7.1-2.95.1-5.98.2-9.12 0l-1.23-.08-1.1-.13-2.27-.34c-1.44-.22-2.83-.4-4.2-.5-1.36-.12-2.7-.14-3.92 0l-.9.1c-.28.04-.56.1-.82.17-.54.1-.96.32-1.37.5l-.46.22c-1.23.6-2.72.06-3.3-1.2-.1-.16-.15-.34-.2-.52-.07-.35-.32-.93-.62-1.6-.3-.68-.68-1.47-.9-2.58l3.32 1.85c-1 .3-1.97.63-2.98.93-.5.16-1.03.3-1.54.44-.5.14-1.05.26-1.57.38-1.06.24-2.16.44-3.3.54-.57.07-1.18.08-1.78.1-.6.03-1.23-.07-1.84-.1-.63-.13-1.27-.25-1.9-.45-.6-.25-1.26-.44-1.82-.83l-.85-.55c-.26-.2-.5-.43-.75-.65-.23-.23-.5-.44-.7-.7l-.6-.74c-.42-.5-.7-1.03-1-1.56-.33-.53-.56-1.07-.78-1.6-.22-.54-.47-1.08-.6-1.62l-.5-1.62 3.36 1.6c-3.5 1.8-7 4.2-10.53 6.55-3.56 2.35-7.18 4.72-11.15 6.73-1.97 1.03-4.06 1.9-6.26 2.6-2.2.7-4.53 1.22-6.98 1.26-2.43.07-4.96-.44-7.25-1.4-.57-.25-1.12-.55-1.67-.83l-1.56-.98-1.53-1.15-1.16-1.08-.15-.14-.08-.1-.16-.16-.3-.35-.64-.68c-.38-.5-.76-1-1.1-1.54-.64-1.08-1.15-2.26-1.5-3.4-.35-1.14-.58-2.28-.8-3.22-.24-.96-.52-1.74-.85-2.2-.32-.43-.82-.72-1.46-1.02l-.47-.17-.26-.1-.38-.07-.8-.15-.2-.04-.1-.03h-.06c-.12-.03.14 0 .1 0-.1 0-.18 0-.28-.02-1.47-.23-3.22 0-5.02.77-1.77.8-3.33 2.15-4.94 3.47-1.6 1.3-3.14 2.8-4.84 4.18-1.7 1.4-3.5 2.76-5.7 3.76-2.17 1.03-4.9 1.52-7.47.96-.65-.14-1.16-.55-1.44-1.08l-.04-.06c-.9-1.7-1.65-3.5-2.2-5.38-.28-.94-.5-1.9-.7-2.84l-.22-1.45-.1-.76-.06-.67c-.13-1.32.84-2.5 2.15-2.62 1.27-.12 2.42.78 2.6 2.04l.03.2z"/><g fill="#202E78"><path d="M576.3 347.2s-.5-.08-1.28-.35c-.38-.14-.87-.34-1.4-.62-.54-.26-1.15-.55-1.76-.94-.3-.2-.64-.4-.96-.6-.33-.22-.62-.53-.94-.8-.65-.52-1.37-1-2.1-1.56-.7-.57-1.48-1.06-2.23-1.63-.77-.53-1.5-1.18-2.18-1.85-.7-.68-1.38-1.34-2.16-1.85-.78-.54-1.72-.8-2.6-1.14-.85-.35-1.57-.83-2.15-1.4-.58-.6-1.15-1.13-1.67-1.62-.5-.5-1.02-.9-1.5-1.23l-1.24-.84c-.34-.23-.63-.4-.82-.5l-.3-.18c-.75-.44-1-1.42-.56-2.17.44-.75 1.4-1 2.17-.55l.4.23s.4.25 1.07.72l1.22.85c.47.33 1 .7 1.55 1.15.55.44 1.1.96 1.68 1.55.56.6 1.24 1.1 1.95 1.63.7.53 1.48 1 2.26 1.5.78.5 1.62.92 2.44 1.38.4.22.82.46 1.2.73.37.25.75.52 1.05.9.3.37.57.8.9 1.12.3.33.67.6 1.05.82.77.4 1.6.7 2.2 1.23.28.3.48.74.8.93.33.2.65.36.97.5.64.3 1.26.5 1.78.7.53.2.97.4 1.36.55.78.3 1.22.5 1.22.5.8.3 1.17 1.22.85 2-.28.7-1 1.06-1.68.95l-.6-.1zM586.95 331.52l-.13-1.78c-.1-1.13-.2-2.77-.43-4.88-.25-2.1-.65-4.63-1.22-7.47-.6-2.85-1.5-6-3.04-9.12-.8-1.52-1.7-3.1-2.9-4.45-.26-.37-.55-.73-.88-1.04-.32-.34-.62-.68-.96-1l-1.07-.9-.28-.23-.03-.03c.02 0-.1-.06.03.02l-.08-.06-.16-.1c-.2-.13-.46-.33-.63-.4l-.54-.3-.65-.3c-.45-.17-.9-.35-1.38-.47-.95-.3-1.96-.5-3-.62-2.05-.26-4.22-.25-6.32.12-1.04.2-2.07.48-2.98.9-.9.42-1.7 1-2.12 1.68-.43.67-.47 1.46-.23 2.37.27.9.8 1.84 1.48 2.7 2.75 3.4 6.9 6.78 11.36 5.95 1.07-.2 2.14-.58 3.14-1.12.98-.6 1.92-1.27 2.75-2.1 1.65-1.64 2.9-3.7 3.85-5.83 1.78-4.35 2.04-9.23.77-13.34-.6-2.07-1.48-3.9-2.77-5.54l-.96-1.36-1.02-1.05c-.34-.36-.6-.76-1-1.06l-1.12-.95c-3.03-2.5-6.7-3.84-10.2-4.55-3.5-.72-6.86-.9-9.85-.98-2.98-.08-5.6-.1-7.8-.2-1.1 0-2.07-.08-2.93-.14-.86-.04-1.6-.1-2.2-.17l-1.82-.2c-.88-.1-1.5-.9-1.42-1.76s.9-1.5 1.77-1.42l.18.03 1.7.2c.55.1 1.24.15 2.06.2.8.07 1.75.12 2.82.15 2.13.1 4.74.1 7.78.18 3.04.07 6.52.26 10.33.97.95.2 1.92.45 2.9.67 1 .3 1.98.66 2.97 1.03.97.48 1.98.9 2.93 1.46l1.43.9c.23.17.47.3.7.48l.67.55 1.32 1.1c.45.36.82.87 1.23 1.3.4.46.8.92 1.22 1.37l.93 1.4c1.42 1.88 2.5 4.25 3.07 6.68 1.2 4.9.57 10.2-1.4 15-1 2.4-2.36 4.73-4.23 6.74-.93 1-2.02 1.88-3.22 2.66-1.22.74-2.6 1.3-4.04 1.64-1.46.3-3 .3-4.45.05-1.43-.33-2.84-.8-4.05-1.53-.63-.3-1.22-.76-1.82-1.18-.32-.2-.56-.4-.78-.6l-.68-.63-.17-.14-.16-.14-.08-.1-.34-.35-.7-.7c-.43-.52-.87-1.02-1.25-1.6-.78-1.1-1.48-2.37-1.85-3.86-.38-1.46-.22-3.33.7-4.7.9-1.35 2.17-2.12 3.35-2.7 1.2-.58 2.44-.93 3.66-1.18 2.44-.5 4.87-.6 7.23-.38 1.18.1 2.34.33 3.48.64 1.15.32 2.2.68 3.33 1.36.3.16.46.3.7.45l.15.1.08.06.1.07.04.04.3.28 1.26 1.13c.4.4.72.83 1.1 1.2.4.38.73.8 1.04 1.2 1.4 1.6 2.42 3.34 3.36 5.02 1.7 3.45 2.77 6.8 3.5 9.8.7 3 1.08 5.67 1.3 7.86.23 2.18.33 3.93.38 5.1l.07 1.78c.03.9-.66 1.63-1.54 1.66-.85.03-1.58-.63-1.64-1.48v-.1zM604.18 320.56s-.2-.42-.36-1.18c-.08-.38-.17-.84-.23-1.37-.08-.5-.17-1.1-.2-1.77 0-.33-.03-.67-.05-1.03-.02-.35.07-.73.1-1.1.04-.77 0-1.57 0-2.4.03-.84-.06-1.7-.07-2.56-.05-.87 0-1.76.1-2.65.1-.9.17-1.8.1-2.66-.08-.87-.46-1.7-.74-2.54-.26-.82-.33-1.63-.22-2.4l.27-2.17c.15-1.33.06-2.45.06-3.24 0-.4-.04-.72-.05-.93 0-.2-.02-.33-.02-.33-.06-.87.6-1.63 1.46-1.7.87-.06 1.63.6 1.7 1.46l.03.5s.03.44.03 1.2v1.35c.02.52.04 1.1 0 1.75 0 .64-.08 1.34-.2 2.08-.14.74-.1 1.53-.08 2.34.02.8.14 1.65.23 2.5.1.84.3 1.7.46 2.56.1.43.17.86.2 1.3.02.42.04.86-.07 1.3-.1.43-.26.87-.34 1.3-.07.43-.06.85 0 1.26.13.8.4 1.58.32 2.35-.08.37-.32.76-.3 1.12l.15 1.02c.13.65.3 1.24.42 1.77s.2 1 .26 1.38l.2 1.2c.15.83-.4 1.63-1.25 1.77-.7.12-1.38-.27-1.66-.9l-.26-.6zM572.2 360s-.2.1-.6.2c-.4.06-.8.1-1.42.05l-.46-.06c-.16-.02-.32-.15-.5-.2-.34-.12-.7-.18-1.1-.22-.37-.05-.76-.05-1.16-.03-.4 0-.82-.06-1.24-.18-.43-.1-.86-.17-1.25-.06-.4.1-.73.52-1.05.84-.32.32-.66.44-1.02.42-.37-.03-.7 0-1 0-.32.02-.6.1-.82.2-.22.1-.42.2-.57.3-.3.2-.47.34-.47.34-.62.58-1.6.55-2.2-.08s-.56-1.6.07-2.2c.06-.06.13-.1.2-.15l.87-.6.54-.3c.37-.16.87-.44 1.52-.62.33-.08.7-.1 1.1-.08.4.03.8-.04 1.2-.14.4-.1.8-.26 1.23-.38.42-.13.84-.34 1.27-.5.22-.1.44-.14.67-.16.2-.04.43-.05.67.1.23.1.46.27.68.37.22.1.43.1.64.07.4-.07.8-.3 1.18-.14.2.12.38.4.56.4.17 0 .35 0 .5-.04.34-.06.65-.17.93-.22.3-.06.53-.08.7-.1l.6-.05c.78-.02 1.42.6 1.43 1.4 0 .53-.28 1-.72 1.24l-.97.55z"/></g><g><g fill="#FFF"><path d="M1043.1 603.77c-3.43.04-27.18 19.87-27.38 21.06-.73 3.82-1.93 70.17-1.93 70.17 3.5 1.76 7.42.98 48.07.84 7.7-.06 5.66-68.66 5.63-67.66.18-5.18-23.4-23.75-24.4-24.4z"/><path d="M1042.6 606.42l-1.27.67c-.9.5-1.76 1.1-2.7 1.62-1.8 1.12-3.7 2.2-5.17 3.85-1.46 1.64-3.58 2.45-5.36 3.7-.88.64-1.65 1.42-2.45 2.15-.8.73-1.6 1.48-2.34 2.28-1.5 1.54-2.96 3.2-4.4 4.7l-.48.53c-.1.1-.13.16-.2.24l-.08.1v.03c.08-.1.2-.3.27-.5.1-.2.12-.37.15-.58v.1l-.02.4c0 .28-.05.55-.08.83-.05 1.02-.26 1.94-.43 3.02-.18 1.07-.34 2.15-.4 3.24-.03 1.1.07 2.2.17 3.3.1 1.08.2 2.18.15 3.27-.08 1.08-.13 2.17-.25 3.26-.23 2.18-.55 4.36-.72 6.54-.17 2.18-.3 4.36-.3 6.55 0 .54 0 1.1.04 1.64.02.54.06 1.1.14 1.64.12 1.1.26 2.2.2 3.28-.06 1.1-.4 2.18-.63 3.26-.1.55-.17 1.1-.15 1.64.04.55.2 1.1.3 1.65.1.55.06 1.1.05 1.64l-.05 1.63c-.02 1.1-.1 2.2-.15 3.28l-.35 6.55c-.12 2.18-.13 4.37-.16 6.55-.02 1.1.02 2.2-.1 3.28-.1 1.1-.3 2.18-.53 3.27l-.84-1.37c.8.64 1.8 1.02 2.98 1.06 1.16.03 2.37-.28 3.57-.3 2.4-.03 4.85.43 7.3.67 2.44.22 4.88.08 7.32-.1 1.22-.12 2.44-.16 3.66-.2l3.67-.05c2.44-.03 4.9.03 7.33.05 2.44.08 4.9.3 7.33.15 1.24-.06 2.46-.2 3.68-.34.3-.03.72-.07.58-.1-.05-.03 0-.1.1-.2.16-.25.37-.7.53-1.18.67-2 .96-4.4 1.18-6.75.24-2.36.43-4.75.64-7.15.2-2.4.95-4.77 1.08-7.2.08-1.2.03-2.43.04-3.65-.04-1.2-.13-2.43-.2-3.65-.1-1.22-.2-2.44-.2-3.65-.04-1.22-.17-2.44.03-3.65.5-2.42.33-4.86.1-7.3-.1-1.2-.1-2.43-.1-3.64.05-1.22.32-2.44.52-3.66.23-1.22.26-2.43.2-3.65-.1-1.22-.22-2.44-.23-3.65.02-1.22.28-2.44.34-3.66.03-.6 0-1.22-.1-1.83l-.22-.9-.1-.44-.06-.23-.02-.1-.02-.03v.02c.48-1.1-1.24 4.22 4.24-.1.84-.65 1-1.87.33-2.7s-1.88-1-2.72-.33c-.18.15-.34.32-.45.52l-1.42 2.35c-.1.16-.23-.42-.5-.9-.24-.48-.54-1.1-.87-1.67-.65-1.2-1.54-2.3-2.43-3.4-.48-.53-.97-1.04-1.47-1.56-.53-.47-1.05-.96-1.64-1.4-.56-.44-1.15-.86-1.7-1.33l-.8-.7-.77-.77c-.52-.5-.98-1.07-1.48-1.6-.48-.54-.98-1.07-1.54-1.53-1.1-.93-2.32-1.72-3.57-2.48-1.22-.77-2.38-1.63-3.54-2.5-.6-.4-1.15-.85-1.73-1.28l-.72-.56zm1.82-4.65l.57.4.45.34c.3.23.6.45.88.7l1.7 1.4 1.68 1.42c.55.5 1.1 1 1.6 1.53.5.54 1.02 1.07 1.53 1.6.53.5 1.08 1 1.64 1.47 1.13.93 2.48 1.62 3.68 2.5.6.42 1.15.92 1.67 1.45.54.5 1 1.1 1.48 1.66.47.6 1 1.12 1.5 1.67.5.53 1.05 1.05 1.6 1.56.57.5 1.13 1 1.7 1.55l1.7 1.64c.3.3.6.58.86.92l.42.5.38.6c.13.18.24.4.35.65.12.26.25.47.33.76.1.3.18.63.23.95.04.4.06.87.02 1.28l-5.77-.22c7.44-5.88 5.12 1.35 5.77-.1v.18l-.04.13-.05.25-.1.47-.24.92c-.12.62-.13 1.24-.1 1.85.12 1.22.54 2.44.53 3.67.02 1.23-.25 2.46-.4 3.68-.18 1.23-.12 2.46.08 3.68.2 1.22.46 2.45.47 3.68.03 1.22-.07 2.45-.22 3.68-.3 2.45-.58 4.9-.2 7.36.15 1.23 0 2.45-.08 3.68-.06 1.22-.22 2.45-.36 3.67l-.4 3.67c-.1 1.23-.2 2.46-.2 3.7-.07 2.44.57 4.96.4 7.45-.16 2.47-.43 4.96-.9 7.45-.26 1.25-.56 2.5-.92 3.76-.38 1.28-.78 2.55-1.47 3.9-.38.68-.78 1.4-1.63 2.12-.43.37-1 .74-1.83.9-.23.06-.57.1-.57.07l-.06-.02h-.03-.18l-.1-.02-.47-.07c-1.23-.2-2.45-.42-3.68-.46-2.44-.2-4.88.43-7.32.58-2.44.16-4.88.4-7.32.5-2.44.1-4.88.22-7.33-.17l-1.83-.22c-.6-.1-1.23-.14-1.84-.16-1.22-.02-2.44.03-3.66.24-2.45.46-4.9 1.26-7.4 1.05-1.27-.14-2.52-.9-3.82-1.2-.3-.08-.67-.16-1-.2-.34-.03-.7-.12-1.07-.16-.74-.1-1.54-.26-2.32-.44-.5-.12-.88-.5-1-.98l-.32-1.22c-.3-1.1-.6-2.2-.65-3.3-.1-1.1.05-2.18.13-3.27.17-2.2.42-4.38.5-6.56l.2-6.56c.03-1.1.05-2.2.13-3.28l.1-1.64c.02-.54.02-1.1.2-1.63.14-.55.36-1.1.45-1.63.08-.55.05-1.1 0-1.64-.1-1.1-.37-2.2-.33-3.3.03-.54.08-1.08.13-1.63l.28-1.63c.2-1.1.34-2.18.4-3.27.42-4.37.4-8.74.47-13.12l.05-3.27.2-3.28c.2-2.18.2-4.38-.06-6.6-.1-1.1-.2-2.3-.14-3.45.02-.28.03-.55.07-.82l.05-.4v-.1c.04-.23.1-.4.2-.6.07-.2.18-.4.28-.55l.1-.13c.6-.7.95-1 1.4-1.4.83-.8 1.7-1.48 2.6-2.16l2.63-2c.9-.65 1.76-1.32 2.62-2 .85-.7 1.76-1.33 2.56-2.08 1.6-1.5 2.93-3.4 4.9-4.47 1.97-1.06 3.55-2.62 5.3-4.02.87-.72 1.8-1.35 2.76-2 .5-.33 1-.65 1.56-.96l.46-.23.23-.12c.06-.04.14-.08.3-.13.27-.1.55-.2.84-.27l.43-.1c.57-.1 1.14.03 1.58.34l.07.05z"/></g><path fill="#E8EAF2" d="M1024.26 687.45c1.26 1.16-1.82 2.26-1.6.48.13-1.13 1.22-.88 1.8-.4M1026.4 684.85c-.5 1.1-1-.84.1-.2M1032.4 683.94c-.16.7-1.05.56-.95-.07.12-.68.83-.54 1.1-.06M1063.42 640c.83 1.13-1.62 1.77-1.3.15.17-.82 1.44-1 1.5-.03M1065.84 636.2c0 .16.16.12.1.3-.13.03-.18.1-.3.1-.4-.37-.25-.8.3-.8 0 .13.05.18.1.3M1057.7 689.64c1.05 1.26-1.22 2.84-2.06 1.08-.88-1.83 2-2.52 2.05-1.08M1030.56 623.37c-.8.34-1.64-.7-.78-1.13.75-.4 1.08.5.9 1.02M1023.9 685.17c-.2.6-.95.16-.66-.34.27-.48 1.14-.2.65.34"/><g fill="#E0E3ED"><ellipse transform="rotate(-57.675 1042.534 615.146)" cx="1042.49" cy="615.12" rx="2.61" ry="2.61"/><path d="M1045.03 616.75l-.1.16c-.05.1-.2.32-.38.5-.35.38-1.06.8-1.98.82-.45.02-.96-.1-1.4-.36l-.34-.22c-.1-.07-.18-.12-.3-.23-.2-.18-.36-.38-.52-.62-.27-.47-.45-1.02-.45-1.6 0-.57.2-1.12.52-1.6.3-.43.78-.83 1.27-1.02.5-.24 1.03-.38 1.6-.37.54 0 1.07.26 1.43.57.4.35.65.75.83 1.15.3.82.3 1.58.15 2.07-.07.24-.15.42-.2.55-.08.12-.1.18-.1.18l-.02.02zm-.67-.44s.13-.18.23-.54c.1-.36.1-.92-.14-1.5-.13-.3-.33-.6-.58-.83-.3-.27-.65-.45-1.06-.5-.4-.05-.84 0-1.22.2-.2.1-.36.22-.5.37-.17.16-.25.27-.4.5-.2.34-.28.77-.34 1.17-.07.4 0 .88.26 1.2.1.18.26.34.4.45l.26.18.24.15c.16.1.3.23.5.27.18.04.36.03.53.03.7-.04 1.18-.4 1.45-.67.14-.15.2-.22.27-.34l.1-.15z"/></g><path fill="#E0E3ED" d="M1023.18 666.07l.07-.4.13-.47.28-.8c.2-.5.44-1 .7-1.46.26-.48.55-.94.9-1.4.17-.2.36-.4.58-.6.2-.2.44-.4.65-.6.24-.2.46-.42.77-.6.14-.1.3-.17.5-.24.17-.08.34-.15.56-.2l.32-.04H1029c.07 0 .08-.02.2 0 .15 0 .3.04.44.08.5.14.9.4 1.18.68.3.28.52.56.67.82l.4.7c.24.42.44.7.48.73l-1.56-.16.1-.1c.06-.08.15-.3.24-.54.18-.5.3-1.18.67-2 .18-.4.5-.87.96-1.25l.18-.12.04-.04h.03c-.17.08.26-.15.22-.13h.05l.23-.1c.23-.07.57-.12.85-.1.3.02.42.1.63.17.68.33 1 .76 1.23 1.08.25.35.42.67.58 1 .32.6.6 1.2.84 1.74.1.23.25.5.32.6.03.06.03.05 0 .04h-.02l-.15-.08h.02l.03.02.05.03.22.1c.05.03.2.1.15.06 0-.05-.1 0-.04 0 .05-.04.1 0 .16-.05.08-.03.16-.05.24-.1l.27-.22c.36-.35.74-.8 1.08-1.3.73-.97 1.22-2.14 1.64-3.34.48-1.2 1.05-2.38 1.6-3.55.55-1.18.92-2.44 1.54-3.6.3-.55.56-1.14.88-1.74.32-.6.64-1.2 1.2-1.76.14-.14.3-.28.52-.4.1-.06.23-.1.37-.14l.1-.03.13-.02h.12l.24-.04c.14 0 .28 0 .42.04.3.02.53.14.76.28.47.3.7.74.86 1.14.15.38.2.77.25 1.13.13 1.46-.05 2.76-.1 4-.06 1.33-.2 2.6-.25 3.9-.07 1.27-.12 2.52-.24 3.75-.06.62-.07 1.24-.06 1.85.04.6.14 1.2.26 1.8.1.62.26 1.2.45 1.72.16.52.44 1 .65 1.25.1.13.18.2.3.27.03.02.1.03.17.05.04.02.1 0 .13 0H1052.07l-.06.02c.14-.05.4-.1.38-.14l.2-.15c.15-.14.3-.33.46-.56.3-.45.56-1.04.9-1.65.34-.6.8-1.34 1.68-1.84.36-.2.8-.17 1.12.07l.06.05c.3.22.5.5.6.76.14.26.2.5.25.7.05.2.1.4.1.53l.05.17v.03c.02 0 0-.04 0-.07.27.6 0 1.3-.58 1.57s-1.3.02-1.57-.57c-.04-.1-.1-.22-.1-.3l-.06-.2-.06-.3-.07-.38-.06-.2s0 .03.06.08l1.3.13c-.22.12-.5.44-.8.95-.3.48-.58 1.08-1 1.73-.22.32-.5.66-.84.98-.17.15-.37.3-.66.47l-.2.1-.13.07-.22.1-.12.04h-.02l-.05.02-.08.03-.2.03c-.12.03-.24.07-.4.07-.27.03-.57.04-.88-.03-.6-.1-1.2-.42-1.54-.8-.8-.74-1.03-1.56-1.28-2.27-.22-.73-.35-1.43-.43-2.1-.17-1.4-.24-2.77-.2-4.12 0-1.35.22-2.67.46-3.95.1-.65.17-1.3.2-1.93.06-.65.1-1.28.1-1.9 0-1.33.1-2.64.02-3.68-.02-.26-.1-.48-.1-.66-.04-.15-.02-.28.04-.3.03 0 .05-.05.1-.06l.05-.05h-.24l-.12.02h-.04c-.1.02.13 0 .1 0h.04c0 .02-.07.08-.13.15-.26.3-.5.87-.7 1.4-.18.57-.35 1.2-.63 1.84-.4 1.17-1.27 2.16-1.67 3.4-.24.58-.45 1.2-.68 1.8-.27.6-.48 1.13-.72 1.76-.26.6-.57 1.2-.86 1.8-.28.62-.5 1.3-.78 1.95-.28.66-.75 1.27-1.37 1.84l-.54.4c-.2.14-.45.25-.68.35-.22.1-.55.15-.82.2-.28.03-.7-.03-1.04-.1-.22-.06-.2-.1-.3-.13l-.22-.12-.26-.14-.2-.15c-.15-.1-.26-.22-.32-.3-.34-.4-.5-.7-.7-1.02-.3-.62-.5-1.23-.7-1.8-.1-.3-.2-.56-.33-.8-.1-.24-.28-.4-.33-.44 0 0-.04-.03 0-.02.03 0 .1-.02.1-.05l-.23.1-.04.02c-.03 0 .2-.12.1-.06h-.02l-.05.05c-.13.1-.27.26-.35.5-.2.5-.27 1.12-.43 1.8-.1.35-.2.72-.4 1.1-.2.4-.56.8-1.03 1.07-.33.18-.7.14-.98-.07l-.04-.03c-.63-.5-.92-1.04-1.17-1.47-.24-.45-.47-.8-.63-1.02-.08-.1-.15-.14-.18-.18v-.02c0-.02-.1-.03-.15-.04l-.1-.02h.07-.13c-.04 0-.1 0-.18.02-.06 0-.13.03-.2.08-.16.06-.32.17-.47.3-.3.27-.5.65-.74 1.02-.22.38-.45.76-.65 1.17-.2.4-.37.84-.52 1.25l-.2.62-.06.23-.06.35v.04c-.1.63-.72 1.06-1.36.95-.64-.1-1.07-.72-.96-1.36v-.03z"/></g></svg>